<svg xmlns="http://www.w3.org/2000/svg" xmlns:xlink="http://www.w3.org/1999/xlink" width="2000" zoomAndPan="magnify" viewBox="0 0 1500 1499.999933" height="2000" preserveAspectRatio="xMidYMid meet" version="1.0"><defs><clipPath id="9910329836"><path d="M 219 337 L 1284 337 L 1284 1163.933594 L 219 1163.933594 Z M 219 337 " clip-rule="nonzero"/></clipPath></defs><g clip-path="url(#9910329836)"><path fill="#60bba8" d="M 269.589844 1135.257812 C 268.828125 1134.289062 267.996094 1133.320312 267.269531 1132.210938 C 266.058594 1130.511719 265.191406 1128.644531 264.359375 1126.910156 C 259.582031 1118.355469 261.453125 1110.011719 260.65625 1101.039062 C 259.753906 1091.066406 252.585938 1085.453125 247.148438 1077.660156 C 246.417969 1076.585938 245.726562 1075.480469 245.070312 1074.371094 C 243.441406 1082.613281 242.472656 1090.441406 241.953125 1097.820312 C 242.019531 1100.035156 242.089844 1102.21875 242.160156 1104.363281 L 242.230469 1107.585938 L 242.714844 1110.460938 C 243.128906 1112.332031 243.304688 1114.410156 243.753906 1116.070312 C 244.203125 1117.558594 244.792969 1119.015625 245.519531 1120.296875 C 248.429688 1125.527344 253.347656 1129.300781 259.234375 1131.898438 C 262.628906 1133.386719 266.09375 1134.425781 269.589844 1135.257812 Z M 374.777344 1058.957031 C 374.601562 1058.890625 373.113281 1058.578125 369.617188 1057.78125 C 367.710938 1057.398438 365.285156 1056.8125 362.273438 1055.773438 C 360.75 1055.285156 359.050781 1054.769531 357.25 1054.109375 C 355.414062 1053.382812 353.476562 1052.550781 351.328125 1051.652344 C 343.050781 1047.804688 332.105469 1041.78125 320.503906 1030.351562 C 314.894531 1024.359375 308.96875 1017.121094 304.328125 1007.527344 C 299.964844 996.996094 287.738281 1000.078125 279.773438 1007.007812 C 273.539062 1012.339844 267.097656 1021.414062 262.871094 1032.601562 C 260.792969 1038.246094 259.234375 1044.445312 258.921875 1050.613281 C 258.785156 1053.660156 258.855469 1056.742188 259.441406 1059.546875 L 259.960938 1061.554688 C 260.203125 1062.59375 260.34375 1062.664062 260.480469 1062.90625 L 260.722656 1063.738281 C 261 1064.914062 261.695312 1065.953125 262.421875 1067.0625 C 265.089844 1071.148438 271.078125 1075.097656 275.445312 1079.945312 C 283.339844 1089.539062 281.019531 1100.554688 281.609375 1111.464844 C 281.539062 1113.542969 281.988281 1114.546875 282.613281 1115.933594 C 283.339844 1117.457031 284.550781 1119.464844 285.589844 1120.609375 C 290.265625 1125.734375 297.261719 1128.054688 303.011719 1129.164062 C 308.933594 1130.269531 313.785156 1130.269531 316.972656 1130.203125 C 317.144531 1130.203125 317.351562 1130.203125 317.523438 1130.203125 C 320.332031 1126.910156 326.289062 1119.914062 335.292969 1109.28125 C 345.335938 1098.199219 358.21875 1080.847656 374.777344 1058.957031 Z M 379.902344 845.957031 C 379.761719 845.746094 379.730469 845.679688 379.589844 845.4375 C 378.273438 843.667969 376.335938 841.003906 374.152344 837.054688 C 372.457031 834.039062 370.445312 830.265625 368.820312 825.277344 C 366.808594 825.140625 364.558594 825.210938 361.890625 825.867188 C 357.425781 826.90625 352.054688 830.058594 347.066406 835.632812 C 342.011719 841.070312 337.542969 848.726562 334.183594 857.417969 C 327.359375 874.839844 326.011719 892.574219 326.289062 904.867188 C 326.355469 907.398438 326.53125 909.753906 326.667969 911.863281 C 332.105469 910.582031 337.335938 909.683594 342.390625 909.164062 C 342.601562 909.023438 342.84375 908.957031 343.050781 908.886719 C 343.257812 908.714844 343.429688 908.644531 343.707031 908.574219 C 343.949219 908.195312 344.296875 907.847656 344.609375 907.535156 C 345.335938 906.878906 346.304688 905.386719 347.136719 904.347656 C 347.726562 903.378906 348.28125 902.480469 348.695312 901.371094 C 350.496094 896.902344 350.84375 890.113281 351.605469 882.597656 C 352.367188 875.289062 353.996094 865.765625 360.402344 858.113281 C 361.789062 856.171875 363.902344 854.476562 365.738281 852.882812 C 367.605469 851.703125 369.546875 850.355469 371.277344 849.488281 C 374.257812 848.035156 377.132812 846.925781 379.902344 845.957031 Z M 468.253906 902.859375 C 467.390625 901.890625 466.488281 900.78125 465.726562 899.429688 C 465.726562 899.429688 465.070312 898.289062 463.855469 895.933594 C 462.609375 893.683594 460.84375 890.425781 458.523438 886.234375 C 456.203125 882.355469 453.429688 877.472656 449.726562 873.523438 C 447.925781 871.203125 445.847656 869.785156 443.628906 867.984375 C 441.550781 866.597656 438.46875 865.316406 434.972656 864.207031 C 427.835938 862.269531 418.902344 861.160156 409.445312 861.4375 C 400.058594 861.75 389.425781 863.097656 380.734375 866.976562 C 378.621094 867.984375 377.0625 868.953125 375.953125 869.886719 C 374.84375 871.273438 373.632812 872.625 372.90625 874.703125 C 371.175781 878.582031 370.515625 884.15625 369.859375 890.566406 C 369.234375 895.792969 368.578125 902.167969 365.769531 908.714844 C 383.851562 909.925781 397.703125 914.324219 405.117188 915.222656 C 409.097656 915.640625 411.695312 915.222656 413.707031 914.324219 C 414.15625 914.082031 414.605469 913.804688 415.125 913.632812 C 415.539062 913.25 415.992188 912.902344 416.304688 912.59375 C 417.203125 912.003906 417.722656 911.101562 418.382812 910.375 C 420.703125 907.398438 422.121094 905.527344 423.542969 905.769531 C 424.71875 905.976562 426 908.054688 425.445312 913.179688 C 425.167969 914.460938 424.996094 916.019531 424.0625 917.648438 C 423.679688 918.480469 423.230469 919.378906 422.710938 920.28125 C 422.050781 921.148438 421.289062 921.976562 420.460938 922.878906 C 416.960938 926.375 411.175781 928.59375 405.289062 929.042969 C 399.402344 929.5625 393.167969 928.90625 386.621094 928.003906 C 379.972656 927.035156 373.875 926.445312 365.738281 926.652344 C 355.832031 926.308594 344.921875 927.242188 332.9375 930.257812 C 332.832031 930.257812 332.695312 930.324219 332.625 930.394531 C 331.515625 930.914062 330.375 931.570312 329.265625 932.230469 C 324.730469 934.863281 320.433594 937.910156 316.695312 941.097656 C 312.917969 944.25 309.628906 947.574219 307.238281 950.726562 C 304.847656 953.773438 303.464844 957.097656 303.601562 958 C 303.53125 959.417969 304.191406 960.527344 304.953125 961.148438 C 305.367188 961.425781 305.886719 961.808594 306.582031 962.121094 C 307.101562 962.398438 307.550781 962.605469 307.929688 962.847656 C 309.316406 963.4375 309.941406 963.609375 310.945312 964.023438 C 314.476562 965.375 317.074219 966.136719 318.632812 966.621094 C 319.015625 966.65625 319.222656 966.796875 319.359375 966.933594 C 319.464844 971.125 319.082031 975.558594 319.082031 979.75 L 319.082031 980.546875 L 319.535156 980.925781 L 319.878906 981.621094 L 320.261719 983.109375 L 320.710938 985.914062 C 321.679688 989.515625 322.789062 992.945312 324.382812 996.0625 C 327.570312 1002.296875 331.414062 1007.59375 335.742188 1011.75 C 344.089844 1020.238281 352.886719 1024.703125 359.433594 1027.542969 C 366.257812 1030.140625 371.105469 1031.320312 374.222656 1031.699219 C 377.304688 1032.152344 378.65625 1032.289062 378.65625 1032.289062 C 380.734375 1032.460938 382.5 1032.980469 383.988281 1033.8125 C 384.890625 1034.296875 385.617188 1034.75 386.308594 1035.335938 C 388.109375 1035.335938 389.945312 1035.335938 391.746094 1035.335938 C 415.195312 1001.117188 441.828125 956.820312 468.253906 902.859375 Z M 515.601562 794.003906 C 515.980469 793.101562 516.363281 792.203125 516.742188 791.265625 C 484.324219 794.210938 458.210938 812.464844 450.3125 845.367188 C 452.390625 846.199219 454.644531 847.304688 456.515625 848.414062 C 458.59375 849.835938 460.601562 851.253906 462.539062 852.605469 C 464.410156 853.992188 465.726562 855.515625 467.285156 856.96875 C 468.773438 858.390625 470.265625 859.738281 471.304688 861.089844 C 476.011719 866.457031 479.128906 871.066406 481.589844 874.703125 C 487.824219 861.089844 494.023438 847.027344 500.117188 832.34375 C 505.175781 819.839844 510.265625 807.09375 515.601562 794.003906 Z M 551.414062 580.652344 C 551.34375 580.515625 551.203125 580.480469 551.136719 580.34375 C 540.847656 570.4375 522.148438 579.753906 511.375 584.152344 C 495.375 590.628906 481.660156 601.988281 469.988281 614.527344 C 464.894531 620.101562 460.601562 625.921875 458.867188 631.324219 C 458.730469 632.535156 457.933594 634.164062 458.140625 634.996094 L 458.074219 636.484375 L 458.453125 638.25 C 458.9375 640.640625 460.082031 643.621094 461.433594 647.046875 C 462.746094 650.339844 464.238281 654.5625 464.824219 659.550781 C 464.929688 660.832031 464.824219 662.253906 464.757812 663.636719 C 464.6875 665.058594 464.480469 666.476562 464.238281 667.242188 C 463.785156 669.074219 463.265625 670.945312 462.816406 672.679688 C 460.84375 679.953125 457.554688 686.046875 454.957031 690.964844 C 453.742188 693.214844 452.632812 695.433594 451.527344 697.511719 C 450.625 699.449219 450.105469 701.113281 449.414062 702.671875 C 448.6875 704.300781 448.753906 705.71875 448.445312 706.964844 C 448.167969 708.246094 447.785156 709.355469 447.960938 710.535156 C 448.027344 712.714844 448.027344 714.414062 447.960938 715.519531 C 448.167969 716.734375 448.375 717.390625 448.375 717.390625 C 448.445312 717.980469 448.375 718.464844 448.234375 718.949219 C 451.90625 720.300781 455.09375 721.71875 457.933594 722.828125 C 460.808594 724.007812 463.40625 724.628906 463.648438 724.457031 C 464.480469 724.835938 468.496094 721.652344 470.644531 717.253906 C 472.863281 713.234375 474.386719 708.039062 475.703125 702.808594 C 476.152344 699.3125 476.601562 695.746094 476.984375 691.933594 L 478.230469 692.074219 C 480.101562 683.242188 482.179688 674.304688 485.988281 665.578125 C 488.65625 659.722656 492.324219 653.90625 497.3125 649.230469 C 502.230469 644.589844 508.257812 641.402344 513.972656 639.671875 C 517.402344 638.5625 520.761719 637.972656 523.949219 637.59375 C 523.566406 636.414062 523.21875 635.066406 523.046875 633.4375 C 523.046875 633.4375 523.046875 632.398438 523.117188 630.285156 C 523.183594 628.136719 522.910156 625.089844 523.808594 620.621094 C 524.328125 616.363281 525.816406 610.785156 528.65625 604.621094 C 531.707031 598.523438 536.589844 592.046875 542.925781 586.75 C 545.558594 584.53125 548.433594 582.558594 551.414062 580.652344 Z M 564.433594 476.058594 C 564.226562 476.125 564.089844 476.195312 563.984375 476.335938 C 553.558594 481.839844 542.40625 488.386719 529.695312 496.835938 C 526.648438 499.191406 523.566406 501.652344 520.3125 504.109375 C 517.089844 506.707031 513.589844 509.027344 510.542969 512.214844 C 504.308594 518.347656 497.140625 524.269531 490.835938 531.820312 C 464.410156 560.566406 437.878906 600.949219 411.558594 646.839844 C 397.84375 669.386719 385.71875 694.53125 372.664062 720.160156 C 360.402344 746.347656 347.796875 773.328125 335.535156 801.449219 C 329.265625 815.441406 323.238281 829.296875 317.59375 843.082031 C 312.019531 856.898438 306.0625 870.304688 301.074219 883.84375 C 295.980469 897.320312 290.996094 910.582031 286.109375 923.535156 C 281.539062 936.628906 277.625 949.582031 273.503906 962.121094 C 271.496094 968.421875 269.554688 974.691406 267.546875 980.789062 C 266.820312 983.765625 266.09375 986.605469 265.398438 989.585938 C 266.09375 988.824219 266.820312 987.957031 267.617188 987.265625 C 275.167969 980.269531 284.171875 976.5625 291.097656 975.558594 C 289.296875 973.722656 287.496094 971.574219 286.179688 969.011719 C 284.449219 965.757812 283.582031 961.738281 283.929688 957.617188 C 284.101562 953.460938 285.730469 948.992188 287.359375 946.085938 C 290.71875 939.710938 295.253906 934.929688 300.242188 930.324219 C 300.96875 929.632812 301.800781 929.042969 302.632812 928.316406 C 302.183594 927.761719 301.9375 927.105469 301.871094 926.308594 C 301.871094 926.308594 301.800781 919 303.359375 906.046875 C 305.089844 893.164062 307.828125 874.390625 316.761719 850.597656 C 321.4375 838.75 327.050781 828.464844 333.835938 820.289062 C 340.730469 812.117188 349.007812 806.296875 356.730469 803.457031 C 360.851562 801.898438 364.558594 801.136719 367.710938 800.792969 C 368.578125 798.019531 369.789062 795.285156 371.484375 792.722656 C 374.671875 787.664062 379.589844 783.714844 383.988281 781.222656 C 388.527344 778.660156 392.613281 776.964844 395.695312 775.230469 C 397.324219 774.367188 398.429688 773.535156 399.46875 772.703125 C 400.300781 771.769531 400.960938 771.316406 401.582031 769.898438 C 402.3125 768.683594 402.828125 767.300781 403.140625 765.777344 C 403.488281 764.078125 403.730469 762.140625 403.800781 759.679688 C 404.078125 754.902344 403.558594 748.734375 405.046875 740.875 C 405.945312 736.925781 407.367188 732.527344 410.347656 728.648438 C 413.1875 724.835938 416.960938 721.652344 420.769531 719.710938 L 421.671875 719.261719 C 421.601562 718.878906 421.5 718.464844 421.5 718.082031 C 421.5 718.082031 421.429688 717.320312 421.429688 715.761719 C 421.53125 714.136719 421.949219 711.675781 422.46875 708.457031 C 422.917969 702.152344 427.109375 692.003906 432.996094 683.171875 C 434.382812 681.128906 435.800781 678.914062 437.359375 676.660156 C 438.917969 674.445312 439.890625 672.296875 441.101562 670.046875 C 442.519531 667.828125 442.867188 665.300781 443.90625 662.773438 C 444.597656 661.109375 444.078125 661.351562 444.425781 660.761719 C 444.21875 659.863281 444.496094 659.34375 443.976562 657.785156 C 443.457031 655.394531 441.933594 651.65625 440.652344 647.222656 C 439.300781 642.960938 438.191406 636.171875 439.613281 629.765625 C 440.929688 623.914062 443.558594 618.855469 446.402344 614.285156 C 449.449219 609.816406 452.84375 605.660156 456.339844 601.851562 C 470.265625 586.75 484.949219 575.734375 498.421875 567.632812 C 500.050781 566.59375 501.675781 565.691406 503.339844 564.789062 C 503.339844 564.546875 503.269531 564.203125 503.269531 563.960938 C 503.410156 561.5 503.753906 558.382812 505.488281 554.226562 C 505.488281 554.226562 505.554688 554.054688 505.730469 553.636719 L 505.800781 553.464844 C 506.007812 553.152344 506.144531 552.808594 506.386719 552.425781 L 506.457031 552.21875 C 506.59375 552.113281 506.664062 551.976562 506.769531 551.769531 C 507.21875 551.074219 507.878906 550.035156 508.777344 548.6875 C 509.226562 547.957031 509.746094 547.160156 510.335938 546.261719 C 510.925781 545.359375 511.894531 544.113281 512.863281 542.972656 C 514.734375 540.511719 517.160156 537.535156 519.167969 535.246094 C 527.445312 526.761719 537.210938 509.792969 553.941406 488.25 C 557.164062 484.09375 560.730469 480.074219 564.433594 476.058594 Z M 572.019531 685.390625 C 571.429688 685.007812 570.914062 684.660156 570.324219 684.210938 C 570.324219 684.210938 566.894531 680.851562 560.523438 675.414062 C 557.371094 672.679688 553.421875 669.664062 548.816406 666.546875 C 546.5625 665.300781 544.035156 663.359375 541.507812 662.460938 C 540.191406 661.941406 538.839844 661.25 537.628906 660.761719 C 536.382812 660.519531 535.132812 660.242188 533.851562 659.863281 C 527.585938 658.960938 520.242188 659.34375 514.875 662.253906 C 509.367188 665.058594 504.828125 671.328125 501.675781 680.261719 C 499.148438 687.015625 497.453125 694.773438 495.304688 703.191406 C 492.671875 722.550781 487.859375 739.140625 480.929688 751.957031 C 472.964844 766.675781 463.925781 776.71875 455.890625 782.46875 C 448.167969 788.703125 441.828125 791.164062 437.671875 792.445312 C 433.515625 793.796875 431.472656 793.621094 430.816406 792.445312 C 430.15625 791.265625 430.988281 789.222656 433.65625 786.039062 C 434.972656 784.480469 436.703125 782.675781 439.023438 780.53125 C 441.414062 778.589844 443.492188 775.40625 446.539062 772.355469 C 452.425781 766.15625 458.800781 756.945312 464.824219 744.128906 C 464.929688 743.816406 465.070312 743.402344 465.277344 743.089844 C 465.136719 743.089844 465.070312 743.089844 465 743.089844 C 462.609375 743.230469 460.011719 742.882812 458.074219 742.433594 C 456.203125 741.980469 454.4375 741.460938 452.910156 740.875 C 449.726562 739.730469 446.921875 738.484375 444.425781 737.515625 C 439.371094 735.46875 435.074219 734.605469 432.441406 735.261719 C 431.644531 735.574219 431.507812 735.46875 430.746094 735.957031 C 429.84375 736.476562 428.945312 736.925781 428.355469 737.515625 C 426.867188 738.484375 426.140625 739.660156 425.378906 740.875 C 424.0625 743.367188 423.679688 747.351562 423.75 752.234375 C 423.820312 757.082031 424.269531 762.660156 423.367188 768.996094 C 422.398438 775.472656 419.800781 781.742188 415.019531 787.007812 C 410.347656 791.996094 405.289062 794.59375 401.480469 796.773438 C 397.601562 798.921875 394.65625 800.652344 392.992188 802.28125 C 389.945312 805.257812 389.875 808.066406 390.394531 811.632812 C 391.191406 815.304688 393.0625 819.078125 395.003906 821.917969 C 396.941406 824.828125 398.742188 827.078125 400.058594 828.535156 C 401.339844 829.953125 402.066406 830.648438 402.066406 830.648438 C 404.90625 833.902344 405.636719 837.332031 404.976562 840.691406 C 409.445312 840.242188 413.84375 839.996094 418.035156 839.996094 C 422.640625 840.03125 427.109375 840.308594 431.402344 840.828125 C 441.378906 796.394531 480.621094 771.734375 525.160156 771.457031 C 527.757812 765.5 530.214844 759.402344 533.332031 753.515625 C 544.105469 730.65625 557.164062 707.9375 572.019531 685.390625 Z M 691.058594 500.335938 C 690.714844 499.332031 690.195312 497.703125 689.15625 495.625 C 687.421875 491.917969 684.515625 486.863281 679.042969 483.054688 C 676.339844 481.253906 673.050781 479.625 668.894531 478.929688 C 664.808594 478.203125 660.027344 478.273438 654.902344 479.3125 C 652.371094 479.761719 649.707031 480.59375 647.074219 481.496094 C 644.40625 482.601562 641.949219 483.332031 639.109375 485.199219 C 633.671875 488.628906 627.957031 492.128906 622.207031 495.695312 C 616.179688 499.574219 610.328125 503.382812 604.644531 507.089844 C 601.875 508.960938 599.140625 510.761719 596.402344 512.527344 C 593.875 514.15625 591.554688 515.75 589.476562 517.445312 C 585.355469 520.804688 582.238281 524.304688 580.75 527.558594 C 579.191406 530.78125 578.878906 533.964844 578.980469 537.464844 C 579.5 544.597656 581.648438 551.664062 583.070312 556.511719 C 584.109375 559.871094 584.835938 562.125 585.214844 563.300781 C 586.496094 562.609375 587.8125 561.949219 589.09375 561.222656 C 592.941406 559.042969 597.0625 556.304688 599.96875 553.707031 C 602.5 551.457031 604.957031 547.75 607.3125 542.972656 C 609.773438 538.191406 612.09375 532.339844 615.902344 526.070312 C 619.46875 519.765625 626.015625 512.597656 634.710938 509.027344 C 636.820312 508.265625 638.761719 507.46875 641.707031 506.882812 C 644.335938 506.707031 646.277344 506.570312 648.5625 506.570312 C 650.640625 506.777344 652.648438 506.949219 654.625 507.160156 C 656.460938 507.539062 658.261719 507.921875 660.027344 508.335938 C 666.675781 510.066406 671.421875 511.351562 674.539062 510.96875 C 677.171875 510.761719 680.878906 508.960938 684.304688 506.429688 C 686.59375 504.769531 688.84375 502.621094 691.058594 500.335938 Z M 753.089844 533.828125 C 751.980469 532.476562 751.082031 530.710938 750.699219 528.527344 C 750.699219 528.527344 750.492188 527.558594 750.179688 525.617188 C 749.902344 523.609375 749.351562 520.875 748.484375 517.445312 C 747.652344 514.015625 746.234375 510.136719 744.363281 506.121094 C 741.867188 502.414062 740.207031 499.503906 735.53125 497.324219 C 733.453125 496.527344 731.582031 495.765625 729.78125 496.007812 C 728.8125 495.867188 727.773438 496.457031 726.59375 496.664062 C 725.417969 497.324219 724.136719 497.703125 722.785156 498.742188 C 717.140625 502.308594 710.976562 509.238281 703.355469 516.234375 C 699.40625 519.660156 694.871094 523.230469 689.363281 526.171875 C 683.996094 529.046875 675.960938 530.710938 669.414062 529.742188 C 662.730469 528.910156 657.671875 526.832031 653.136719 526 C 651.992188 525.6875 650.882812 525.480469 649.84375 525.410156 C 648.875 525.34375 647.765625 525.097656 646.867188 525.273438 C 645.828125 525.34375 644.855469 525.34375 644.335938 525.410156 L 641.808594 526.242188 C 634.882812 528.910156 630.796875 537.015625 626.535156 546.78125 C 624.386719 551.59375 622.066406 556.753906 618.570312 561.8125 C 616.835938 564.339844 614.757812 566.800781 612.371094 569.015625 C 610.152344 570.886719 608.003906 572.515625 605.824219 574.246094 C 597.0625 580.480469 588.507812 584.742188 581.058594 588.828125 C 573.542969 592.914062 567.066406 596.722656 562.148438 600.601562 C 552.105469 608.429688 549.992188 616.085938 549.472656 621.972656 C 549.402344 623.460938 549.335938 624.8125 549.265625 625.921875 C 549.335938 627.167969 549.507812 628.277344 549.578125 629.039062 C 549.785156 630.734375 549.921875 631.636719 549.921875 631.636719 C 549.921875 631.84375 549.921875 631.949219 549.921875 632.15625 C 554.632812 632.535156 559.484375 632.917969 563.050781 632.847656 C 564.539062 632.847656 565.578125 632.777344 566.964844 632.746094 C 568.039062 632.46875 569.355469 632.398438 570.183594 632.15625 C 571.222656 631.84375 573.234375 630.910156 574.582031 629.417969 C 580.609375 623.808594 584.558594 613.695312 589.855469 607.597656 C 595.050781 601.054688 600.941406 598.074219 604.644531 597.484375 C 608.316406 596.933594 610.082031 597.761719 610.535156 598.976562 C 610.984375 600.292969 610.152344 601.917969 608.28125 604.171875 C 606.378906 606.492188 603.988281 609.46875 601.390625 615.113281 C 600.109375 617.921875 598.828125 621.382812 596.992188 625.886719 C 595.050781 630.355469 592.941406 636.035156 587.46875 641.992188 C 584.835938 644.96875 581.511719 647.636719 576.351562 649.75 C 574.273438 650.476562 572.402344 650.859375 570.324219 651.273438 C 573.371094 653.246094 575.898438 655.082031 578.152344 656.574219 C 584.175781 661.039062 587.292969 663.359375 587.46875 663.5 C 605.027344 640.433594 625.046875 618.230469 648.214844 598.074219 C 674.261719 575.148438 704.566406 555.472656 737.851562 540.375 C 742.839844 538.121094 747.964844 535.90625 753.089844 533.828125 Z M 763.585938 476.957031 C 768.191406 469.855469 775.5 463.105469 784.746094 458.84375 C 758.839844 438.6875 715.71875 441.664062 692.582031 464.730469 C 693.3125 465.179688 694.003906 465.5625 694.660156 465.945312 C 702.695312 471.449219 707.476562 477.304688 710.488281 481.632812 C 713.121094 479.695312 715.960938 477.925781 719.285156 476.4375 C 725.035156 473.804688 731.894531 473.667969 737.609375 474.5 C 740.277344 475.226562 742.90625 475.917969 745.261719 476.851562 C 747.515625 477.890625 749.660156 478.964844 751.671875 480.074219 C 754.269531 482.015625 756.832031 484.023438 758.910156 486.101562 C 760.15625 483.121094 761.574219 480.074219 763.585938 476.957031 Z M 948.429688 456.695312 C 950.957031 456.625 953.519531 456.453125 956.117188 456.246094 C 947.460938 451.640625 937.9375 446.652344 927.371094 441.527344 C 921.171875 438.617188 914.625 435.707031 907.769531 432.730469 C 900.703125 430.132812 893.8125 426.980469 885.914062 424.554688 C 870.257812 419.601562 853.53125 414.269531 836.039062 408.625 C 816.816406 402.285156 799.707031 391.546875 782.632812 381.261719 C 765.59375 371.078125 747.894531 360.585938 729.125 357.226562 C 719.667969 355.460938 710.488281 356.253906 702.246094 359.164062 C 694.074219 362.28125 686.902344 367.753906 680.566406 374.507812 C 674.191406 381.261719 668.617188 389.019531 663.179688 396.847656 C 657.117188 404.675781 651.160156 412.398438 645.308594 419.914062 C 633.011719 434.21875 620.960938 447.484375 609.703125 459.433594 C 598.238281 471.449219 588.367188 482.742188 579.328125 493.097656 C 571.015625 503.382812 564.296875 513.636719 558.339844 523.089844 C 552.3125 532.476562 547.535156 540.652344 541.886719 547.957031 C 540.710938 549.515625 539.566406 551.007812 538.460938 552.355469 C 538.320312 552.632812 538.148438 552.808594 537.941406 553.085938 C 544.207031 552.496094 550.304688 553.085938 555.5 554.675781 C 556.054688 554.886719 556.644531 555.09375 557.230469 555.335938 C 548.054688 552.046875 569.941406 513.566406 572.46875 509.6875 C 575.101562 505.667969 577.976562 501.0625 581.789062 498.152344 C 588.957031 492.785156 597.789062 491.988281 604.785156 486.238281 C 613.511719 479.105469 623.039062 473.007812 632.769531 466.878906 C 640.527344 462.859375 647.765625 460.332031 655.351562 458.84375 C 661.445312 457.664062 667.542969 457.527344 673.292969 458.183594 C 673.605469 457.214844 674.125 456.175781 674.921875 455.277344 C 705.085938 417.972656 772.902344 415.898438 805.214844 451.1875 C 805.875 451.953125 806.394531 452.679688 806.773438 453.476562 C 810.859375 453.199219 815.328125 453.335938 819.347656 454.167969 C 825.164062 455.277344 829.773438 456.625 833.859375 456.9375 C 838.015625 457.421875 841.167969 456.902344 846.363281 455.414062 C 851.003906 454.097656 855.679688 451.847656 860.976562 449.007812 C 866.3125 446.269531 872.441406 442.632812 880.476562 440.246094 C 888.441406 437.855469 897.449219 438.097656 904.753906 440.003906 C 912.789062 441.941406 919.199219 446.132812 923.941406 449.179688 C 928.863281 452.296875 932.742188 454.515625 936.378906 455.519531 C 939.738281 456.695312 943.824219 456.765625 948.429688 456.695312 Z M 1000.035156 505.667969 C 1000.242188 503.972656 1000.035156 501.511719 999.863281 498.222656 C 999.585938 496.734375 999.273438 495.035156 998.859375 493.167969 C 998.234375 491.675781 997.886719 489.460938 996.882812 488.039062 C 996.46875 487.210938 996.019531 486.34375 995.566406 485.511719 C 994.980469 484.820312 994.355469 484.09375 993.699219 483.398438 C 993.109375 482.671875 992 481.875 991.167969 481.113281 C 990.199219 480.664062 989.542969 479.867188 988.328125 479.484375 C 984.035156 477.40625 977.109375 476.507812 969.070312 476.507812 C 960.933594 476.367188 951.789062 477.371094 940.636719 476.367188 C 935.09375 475.882812 928.480469 473.980469 923.421875 471.207031 C 918.195312 468.4375 913.761719 465.179688 909.742188 462.652344 C 907.769531 461.371094 905.792969 460.402344 903.925781 459.5 C 902.125 458.773438 900.183594 458.046875 897.96875 457.664062 C 893.777344 456.902344 889.757812 456.9375 885.601562 458.183594 C 878.675781 460.125 871.332031 465.042969 862.917969 469.199219 C 870.882812 471.382812 877.566406 472.90625 882.484375 474.84375 C 892.980469 478.273438 896.753906 481.355469 896.269531 484.023438 C 895.890625 486.691406 891.351562 488.421875 880.234375 488.421875 C 874.726562 488.421875 867.28125 487.796875 857.894531 486.34375 C 853.148438 485.375 847.921875 484.230469 842.066406 482.8125 C 836.386719 480.90625 830.152344 478.445312 823.433594 475.816406 L 823.605469 475.296875 C 823.363281 475.296875 823.050781 475.226562 822.707031 475.15625 C 805.804688 470.828125 791.949219 477.304688 785.613281 485.441406 C 779.203125 493.894531 779.308594 503.210938 780.488281 508.890625 C 780.867188 510.3125 781.179688 511.625 781.457031 512.734375 C 781.90625 513.808594 782.289062 514.742188 782.632812 515.503906 C 783.152344 516.996094 783.605469 517.722656 783.605469 517.722656 C 784.296875 519.210938 784.503906 520.632812 784.367188 521.984375 C 784.367188 522.257812 784.296875 522.433594 784.296875 522.640625 C 803.863281 516.476562 824.125 511.695312 844.804688 508.265625 C 854.1875 506.949219 863.644531 505.738281 873.167969 504.421875 C 882.761719 503.800781 892.390625 503.140625 902.054688 502.484375 C 921.484375 501.964844 941.363281 502.414062 961.035156 505.390625 C 974.058594 507.296875 986.945312 510.066406 999.722656 513.566406 C 999.722656 512.734375 999.863281 511.765625 1000.105469 510.761719 C 999.964844 510 999.898438 509.167969 999.964844 508.335938 C 999.964844 508.335938 999.964844 507.402344 1000.035156 505.667969 Z M 1131.371094 557.792969 C 1131.335938 557.414062 1131.195312 557.03125 1131.128906 556.6875 C 1129.328125 547.230469 1129.777344 541.414062 1126.070312 536.875 C 1124.375 534.105469 1122.121094 532.40625 1119.351562 530.605469 C 1116.617188 528.839844 1112.738281 527.488281 1108.648438 525.863281 C 1104.460938 524.371094 1099.785156 522.292969 1096.148438 520.875 C 1094.207031 520.113281 1092.335938 519.316406 1090.398438 518.554688 C 1088.078125 517.445312 1085.652344 516.683594 1083.332031 515.230469 L 1079.832031 512.597656 L 1078.207031 511.28125 L 1077.097656 510.207031 C 1075.574219 508.785156 1074.050781 507.296875 1072.5625 505.910156 C 1069.652344 503.210938 1066.292969 499.78125 1063.761719 496.804688 C 1061.132812 493.824219 1058.636719 490.878906 1057.042969 489.667969 C 1055.695312 488.699219 1055.035156 488.769531 1053.925781 488.90625 C 1052.367188 489.011719 1049.839844 489.910156 1047.519531 490.878906 C 1046.273438 491.539062 1044.851562 492.058594 1043.8125 492.714844 C 1042.914062 493.234375 1042.011719 493.824219 1041.113281 494.378906 C 1034.183594 499.054688 1030.546875 506.363281 1028.261719 511.246094 C 1026.289062 516.269531 1025.5625 519.316406 1025.5625 519.316406 C 1025.25 520.179688 1024.800781 520.804688 1024.246094 521.464844 C 1041.699219 527.800781 1058.707031 535.664062 1074.914062 545.050781 C 1086 551.386719 1096.667969 558.523438 1107.023438 566.039062 C 1114.882812 561.949219 1122.953125 559.285156 1131.371094 557.792969 Z M 1160.984375 595.164062 C 1161.050781 591.738281 1161.050781 587.269531 1159.875 584.601562 C 1160.082031 583.390625 1157.832031 581.035156 1151.007812 578.644531 C 1149.519531 578.054688 1147.441406 577.226562 1145.433594 576.324219 C 1145.191406 576.1875 1144.808594 575.941406 1144.460938 575.734375 C 1137.464844 576.253906 1130.921875 577.433594 1124.582031 579.613281 C 1135.976562 589.070312 1146.921875 599.253906 1157.277344 609.988281 C 1157.691406 608.707031 1158.664062 607.011719 1159.320312 604.480469 C 1159.632812 603.269531 1159.945312 601.851562 1160.324219 600.292969 C 1160.53125 598.734375 1160.808594 597 1160.984375 595.164062 Z M 1246.148438 726.015625 C 1246.355469 724.976562 1246.601562 725.21875 1246.148438 723.9375 C 1245.90625 722.757812 1244.800781 720.890625 1243.550781 718.671875 C 1242.132812 716.214844 1240.261719 713.683594 1238.773438 709.597656 C 1237.941406 707.867188 1237.527344 705.199219 1237.144531 702.949219 C 1237.074219 700.800781 1237.144531 698.480469 1237.421875 696.402344 C 1238.703125 688.507812 1241.75 682.617188 1243.378906 677.144531 C 1244.140625 674.582031 1244.800781 671.847656 1244.660156 670.289062 C 1244.660156 669.90625 1244.660156 669.527344 1244.730469 669.144531 L 1244.070312 667.171875 L 1243.484375 665.195312 C 1243.378906 664.609375 1243.242188 664.46875 1243.03125 664.089844 C 1242.789062 663.359375 1242.476562 662.839844 1241.890625 662.460938 C 1241.683594 662.253906 1241.371094 662.078125 1241.023438 662.011719 L 1239.535156 661.421875 C 1238.320312 660.972656 1236.3125 660.070312 1234.546875 659.273438 C 1232.816406 658.441406 1231.324219 657.472656 1229.699219 656.574219 C 1226.859375 655.082031 1224.121094 653.523438 1221.421875 652.105469 C 1218.511719 650.304688 1215.394531 648.78125 1212.65625 646.597656 C 1211.308594 645.558594 1209.886719 644.519531 1208.640625 643.480469 C 1207.496094 642.511719 1206.320312 641.472656 1205.210938 640.503906 C 1202.960938 638.492188 1200.8125 636.625 1198.804688 634.789062 C 1196.863281 632.988281 1194.996094 631.324219 1193.125 629.695312 C 1191.359375 628.070312 1189.660156 626.71875 1188.96875 626.335938 C 1187.929688 625.886719 1187.269531 626.335938 1186.957031 626.785156 C 1186.957031 626.890625 1185.988281 627.550781 1185.398438 628 C 1184.429688 628.796875 1183.460938 629.488281 1182.664062 630.148438 C 1180.792969 631.707031 1179.375 632.917969 1178.402344 633.78125 C 1202.234375 662.597656 1222.078125 694.1875 1237.941406 727.089844 C 1239.292969 730.136719 1240.574219 733.183594 1241.957031 736.234375 C 1243.761719 734.292969 1245.386719 731.3125 1246.148438 726.015625 Z M 1258.652344 903.96875 C 1262.289062 896.210938 1264.402344 887.203125 1264.230469 877.4375 C 1264.296875 858.007812 1258.894531 837.261719 1252.246094 816.550781 C 1248.886719 806.296875 1245.109375 795.421875 1241.300781 785 C 1237.421875 774.640625 1234.027344 763.871094 1229.246094 753.792969 C 1211.445312 712.507812 1187.546875 672.125 1156.132812 636.242188 C 1140.269531 618.300781 1123.023438 602.023438 1104.769531 587.789062 C 1101.863281 587.339844 1099.402344 585.328125 1097.984375 582.664062 C 1081.980469 570.816406 1065.320312 560.324219 1048.039062 551.664062 C 1008 532.164062 965.191406 522.257812 923.699219 521.53125 C 882.035156 521.152344 841.027344 526.832031 803.484375 537.222656 C 765.835938 547.679688 731.339844 563.507812 701.136719 583.25 C 670.902344 602.957031 645.238281 626.785156 623.558594 651.964844 C 602.046875 677.285156 583.726562 703.640625 569.421875 730.65625 C 567.585938 734.015625 565.578125 737.273438 563.914062 740.632812 C 562.21875 743.992188 560.589844 747.417969 558.996094 750.746094 C 555.742188 757.464844 552.382812 764.007812 549.402344 770.695312 C 543.828125 784.234375 538.183594 796.84375 533.089844 810.246094 C 527.894531 823.476562 522.839844 836.292969 517.992188 848.726562 C 512.621094 861.089844 507.425781 873.074219 502.371094 884.746094 C 461.363281 977.601562 418.3125 1042.367188 388.109375 1084.101562 C 380.421875 1094.390625 373.667969 1103.53125 367.847656 1111.292969 C 361.890625 1118.945312 356.59375 1125.074219 352.507812 1130.132812 C 350.878906 1132.070312 349.527344 1133.769531 348.246094 1135.328125 C 350.566406 1135.5 352.574219 1135.882812 354.308594 1136.402344 C 359.363281 1133.839844 365.148438 1131.101562 372.003906 1128.054688 C 382.742188 1123.65625 395.972656 1119.570312 411.628906 1114.71875 C 411.628906 1114.71875 413.1875 1114.269531 416.304688 1113.371094 C 419.488281 1112.46875 424.0625 1110.839844 430.433594 1109.421875 C 443.039062 1106.511719 461.777344 1101.316406 486.886719 1095.878906 C 499.390625 1093.210938 513.523438 1090.234375 529.144531 1086.941406 C 544.726562 1083.894531 561.835938 1080.535156 580.539062 1076.898438 C 599.070312 1073.226562 619.332031 1069.523438 640.769531 1064.914062 C 651.542969 1062.699219 662.660156 1060.378906 674.125 1057.917969 C 685.585938 1055.460938 697.257812 1052.480469 709.449219 1049.640625 C 715.476562 1048.152344 721.609375 1046.730469 727.839844 1045.242188 C 734.109375 1043.546875 740.449219 1041.78125 746.855469 1040.117188 C 759.707031 1036.617188 772.972656 1033.050781 786.582031 1029.347656 C 813.699219 1021.828125 842.585938 1014.589844 872.855469 1006.765625 C 880.40625 1004.824219 888.0625 1002.816406 895.820312 1000.808594 C 903.683594 998.972656 911.578125 997.171875 919.542969 995.300781 C 935.546875 991.523438 951.859375 987.785156 968.621094 983.835938 C 976.933594 981.828125 985.453125 980.0625 994.078125 978.46875 C 1002.703125 976.769531 1011.429688 975.074219 1020.261719 973.410156 C 1037.925781 970.15625 1055.867188 966.207031 1074.257812 963.296875 C 1111.039062 957.480469 1148.929688 951.382812 1187.203125 941.859375 C 1192.015625 940.679688 1196.726562 939.261719 1201.472656 937.980469 C 1206.320312 936.699219 1211.066406 935.242188 1215.707031 933.582031 C 1220.242188 931.953125 1225.542969 930.601562 1229.558594 928.699219 C 1233.714844 926.894531 1238.046875 925.269531 1241.542969 922.636719 C 1245.5625 920.558594 1248.402344 917.371094 1251.65625 914.53125 C 1254.183594 911.171875 1257.023438 907.984375 1258.652344 903.96875 Z M 1283.070312 869.886719 C 1283.589844 874.945312 1283.140625 880.277344 1283 885.4375 C 1282.792969 888.035156 1282.308594 890.703125 1281.890625 893.300781 L 1281.269531 897.25 L 1280.160156 901.128906 C 1277.632812 911.621094 1271.535156 921.390625 1264.089844 929.183594 L 1258.0625 934.65625 C 1256.054688 936.421875 1253.734375 937.667969 1251.519531 939.15625 C 1247.1875 942.308594 1242.410156 944.179688 1237.734375 946.257812 C 1219.410156 953.460938 1201.574219 958.519531 1183.53125 962.847656 C 1165.519531 967.382812 1147.648438 970.8125 1129.949219 974.171875 C 1112.355469 977.359375 1094.867188 980.335938 1077.6875 983.109375 C 1060.613281 985.914062 1043.953125 989.65625 1027.363281 992.839844 C 1010.910156 996.269531 994.597656 999.179688 978.667969 1002.886719 C 962.734375 1006.695312 947.078125 1010.433594 931.667969 1014.140625 C 900.738281 1021.207031 871.230469 1029.554688 842.726562 1037.070312 C 814.21875 1044.585938 786.894531 1052.480469 760.8125 1059.753906 C 734.90625 1067.304688 709.449219 1073.332031 685.554688 1079.425781 C 661.585938 1084.65625 638.96875 1089.921875 617.808594 1094.183594 C 596.679688 1098.613281 577.042969 1102.667969 558.996094 1106.441406 C 540.847656 1110.113281 524.398438 1113.679688 509.679688 1117.109375 C 470.332031 1125.59375 428.804688 1134.738281 392.195312 1151.953125 C 384.195312 1155.761719 376.785156 1156.246094 368.367188 1158.707031 C 347 1164.734375 323.101562 1164.28125 301.003906 1163.9375 C 290.855469 1163.625 278.109375 1163.175781 262.492188 1158.878906 C 254.699219 1156.488281 246.039062 1153.335938 237.621094 1146.585938 C 233.398438 1143.363281 229.378906 1139 226.332031 1133.839844 C 224.738281 1131.308594 223.492188 1128.46875 222.453125 1125.527344 C 222.003906 1124.105469 221.484375 1122.546875 221.101562 1121.128906 L 220.445312 1116.972656 C 216.84375 1094.25 222.730469 1072.429688 228.546875 1049.710938 C 234.125 1027.820312 241.050781 1002.296875 248.222656 975.140625 C 265.089844 921.457031 288.847656 860.917969 318.425781 793.933594 C 348.105469 727.019531 375.191406 667.96875 404.144531 619.515625 C 432.164062 571.476562 458.453125 531.125 486.300781 503.347656 C 513.589844 475.226562 541.367188 459.988281 556.988281 450.808594 C 573.542969 440.902344 582.894531 436.433594 582.894531 436.433594 C 588.507812 433.59375 593.875 431.828125 598.34375 430.71875 C 602.707031 429.957031 606.066406 429.578125 609.113281 429.820312 C 613.132812 425.664062 617.148438 421.472656 621.167969 417.074219 C 627.886719 410.25 633.703125 402.632812 640.078125 394.769531 C 646.484375 387.253906 652.441406 378.144531 660.164062 368.933594 C 667.648438 359.859375 677.101562 350.4375 689.882812 344.0625 C 702.765625 337.796875 718.179688 336.304688 732.03125 338.835938 C 738.890625 340.496094 746.023438 341.675781 751.980469 344.445312 C 755.097656 345.691406 758.214844 346.871094 761.195312 348.082031 C 764.035156 349.5 766.875 350.921875 769.679688 352.375 C 780.796875 357.988281 790.703125 364.082031 800.367188 369.726562 C 805.113281 372.359375 809.753906 375.027344 814.359375 377.695312 C 818.964844 379.945312 823.433594 382.230469 827.832031 384.414062 C 832.230469 386.109375 836.558594 387.773438 840.785156 389.402344 C 845.632812 390.820312 850.378906 392.207031 855.019531 393.558594 C 864.300781 396.257812 873.238281 398.925781 881.792969 401.382812 C 890.3125 403.914062 898.488281 406.128906 906.382812 409.109375 C 910.332031 410.527344 914.210938 411.808594 917.917969 413.230469 C 921.554688 414.71875 925.121094 416.140625 928.617188 417.59375 C 935.582031 420.363281 941.953125 423.34375 948.050781 426.078125 C 972.050781 437.128906 989.609375 446.0625 1001.457031 451.570312 C 1013.300781 457.007812 1019.328125 459.8125 1019.328125 459.8125 C 1027.953125 463.761719 1032.695312 468.160156 1034.566406 472.488281 C 1036.125 471.796875 1037.546875 471.347656 1039.035156 470.757812 C 1040.664062 470.101562 1042.773438 469.582031 1044.75 468.992188 C 1046.929688 468.472656 1049.183594 467.988281 1051.988281 467.847656 C 1054.828125 467.640625 1058.324219 467.988281 1061.511719 468.957031 C 1064.628906 470.03125 1067.851562 471.902344 1070.136719 473.945312 C 1072.386719 475.917969 1073.945312 477.824219 1075.367188 479.554688 C 1078.136719 482.984375 1080.421875 485.960938 1083.019531 488.769531 C 1085.410156 491.398438 1089.046875 495.105469 1091.816406 497.773438 C 1092.789062 498.464844 1093.308594 499.503906 1095.246094 500.09375 C 1097.253906 500.925781 1099.265625 501.824219 1101.34375 502.761719 C 1103.730469 503.730469 1106.121094 504.769531 1108.511719 505.738281 C 1110.589844 506.640625 1112.804688 507.539062 1115.195312 508.441406 C 1120.042969 510.242188 1125.757812 512.285156 1131.265625 515.957031 C 1134.039062 517.722656 1136.425781 520.042969 1138.78125 522.363281 C 1140.722656 524.890625 1142.730469 527.039062 1144.21875 530.15625 C 1147.511719 535.976562 1148.617188 542.070312 1149.277344 546.261719 C 1149.96875 550.660156 1150.765625 553.777344 1151.597656 555.578125 C 1151.769531 555.855469 1151.839844 555.992188 1151.910156 556.097656 C 1154.644531 556.234375 1156.722656 557.207031 1158.144531 558.765625 C 1160.011719 559.421875 1162.160156 560.046875 1164.273438 560.910156 C 1166.421875 561.882812 1168.359375 562.644531 1170.578125 564.132812 C 1172.757812 565.449219 1174.523438 566.9375 1176.601562 569.191406 L 1178.09375 570.816406 C 1178.542969 571.40625 1178.714844 571.996094 1179.0625 572.515625 C 1179.582031 573.519531 1180.101562 574.558594 1180.691406 575.597656 C 1181.695312 577.605469 1182.492188 579.546875 1182.804688 581.242188 C 1185.15625 589.9375 1185.398438 596.863281 1185.019531 602.472656 C 1188.585938 602.09375 1192.398438 602.371094 1196.035156 604.171875 C 1197.835938 604.933594 1199.53125 606.039062 1201.195312 607.289062 C 1202.753906 608.394531 1204.070312 609.609375 1205.28125 610.714844 C 1207.21875 612.726562 1209.054688 614.664062 1210.789062 616.605469 C 1214.355469 620.621094 1218.0625 624.433594 1222.113281 628.519531 C 1225.820312 632.085938 1230.148438 634.855469 1237.007812 638.875 C 1240.332031 640.78125 1242.476562 642.339844 1245.25 643.480469 L 1248.296875 644.726562 C 1249.71875 645.421875 1251.414062 646.148438 1252.765625 647.117188 C 1254.183594 648.15625 1255.605469 649.195312 1256.574219 650.683594 C 1257.820312 651.964844 1258.722656 653.523438 1259.378906 655.152344 C 1261.179688 658.652344 1261.699219 660.730469 1262.359375 663.050781 L 1262.84375 664.78125 C 1262.980469 665.507812 1263.121094 666.410156 1263.191406 667.171875 C 1263.328125 668.800781 1263.433594 670.496094 1263.433594 671.984375 C 1263.050781 677.421875 1261.839844 682.027344 1260.660156 685.597656 C 1259.484375 689.335938 1258.445312 692.386719 1257.753906 695.050781 C 1257.371094 696.472656 1257.40625 697.371094 1257.09375 698.480469 C 1257.09375 699.449219 1257.234375 699.902344 1257.09375 700.59375 C 1257.40625 701.113281 1257.820312 702.429688 1259.101562 704.160156 C 1260.351562 706.066406 1262.082031 708.109375 1263.953125 711.15625 C 1265.789062 713.753906 1267.589844 717.839844 1268.488281 722.238281 C 1268.871094 723.277344 1268.835938 724.457031 1268.765625 725.425781 C 1268.765625 726.257812 1268.765625 727.089844 1268.695312 727.921875 C 1268.628906 729.375 1268.695312 730.65625 1268.488281 732.078125 C 1267.867188 737.515625 1266.480469 742.777344 1264.367188 746.796875 C 1263.398438 748.910156 1262.359375 750.746094 1261.179688 752.234375 C 1260.140625 753.792969 1259.101562 755.210938 1258.132812 756.25 C 1256.195312 758.363281 1254.703125 760.0625 1253.664062 760.824219 C 1253.285156 761.238281 1253.007812 761.410156 1252.765625 761.6875 C 1255.433594 768.824219 1257.996094 775.992188 1260.660156 783.128906 C 1267.277344 801.589844 1273.890625 820.429688 1278.53125 839.859375 C 1280.609375 849.695312 1282.621094 859.601562 1283.070312 869.886719 " fill-opacity="1" fill-rule="nonzero"/></g><path fill="#60bba8" d="M 1192.328125 816.203125 C 1196.277344 821.085938 1181.589844 838.507812 1165.140625 859.289062 C 1157.035156 869.851562 1150.039062 879.550781 1144.671875 886.234375 C 1139.230469 893.613281 1134.765625 898.359375 1131.925781 897.179688 C 1129.1875 896.003906 1128.355469 889.800781 1130.433594 880.347656 C 1132.859375 870.234375 1138.78125 857.730469 1147.890625 845.816406 C 1166.699219 822.230469 1188.828125 811.632812 1192.328125 816.203125 " fill-opacity="1" fill-rule="nonzero"/><path fill="#60bba8" d="M 1146.992188 798.921875 C 1149.589844 800.410156 1148.792969 807.09375 1144.914062 816.550781 C 1140.964844 825.9375 1133.65625 837.710938 1124.789062 849.453125 C 1115.957031 861.160156 1107.75 871.203125 1101.652344 877.992188 C 1095.386719 885.371094 1090.398438 889.976562 1087.660156 888.488281 C 1085.097656 887.136719 1084.890625 880.660156 1087.9375 870.925781 C 1091.367188 860.710938 1098.226562 848.414062 1107.300781 836.363281 C 1116.375 824.378906 1125.171875 814.609375 1132.167969 807.855469 C 1138.957031 801.136719 1144.324219 797.363281 1146.992188 798.921875 " fill-opacity="1" fill-rule="nonzero"/><path fill="#60bba8" d="M 1067.121094 639.152344 C 1072.386719 642.339844 1067.574219 659.414062 1057.667969 677.664062 C 1048.210938 695.292969 1037.09375 709.804688 1031.519531 707.140625 C 1026.21875 704.679688 1027.882812 687.191406 1038.375 667.308594 C 1048.800781 648.261719 1062.03125 636.105469 1067.121094 639.152344 " fill-opacity="1" fill-rule="nonzero"/><path fill="#60bba8" d="M 1048.800781 619.722656 C 1053.097656 624.1875 1043.503906 639.914062 1031.277344 657.402344 C 1025.179688 666.269531 1019.671875 674.132812 1015.066406 679.433594 C 1010.390625 685.25 1006.339844 688.886719 1003.464844 687.710938 C 1000.695312 686.636719 999.515625 681.507812 1000.761719 673.613281 C 1002.320312 665.300781 1006.441406 654.945312 1013.265625 644.96875 C 1027.222656 625.089844 1044.785156 615.425781 1048.800781 619.722656 " fill-opacity="1" fill-rule="nonzero"/><path fill="#60bba8" d="M 772.453125 621.902344 C 777.644531 624.8125 774.078125 641.160156 762.859375 657.679688 C 751.011719 674.652344 737.160156 682.722656 732.484375 679.121094 C 727.632812 675.277344 734.699219 660 744.847656 645.316406 C 755.339844 629.800781 767.082031 618.855469 772.453125 621.902344 " fill-opacity="1" fill-rule="nonzero"/><path fill="#60bba8" d="M 731.445312 617.574219 C 736.257812 621.453125 729.125 636.933594 718.246094 652.277344 C 712.914062 660.070312 707.824219 666.722656 703.667969 671.152344 C 699.335938 676.140625 695.457031 679.222656 692.582031 678.011719 C 689.8125 676.902344 688.460938 672.296875 689.363281 665.230469 C 690.574219 657.714844 694.28125 648.605469 700.238281 639.84375 C 712.464844 622.699219 726.871094 613.867188 731.445312 617.574219 " fill-opacity="1" fill-rule="nonzero"/><path fill="#60bba8" d="M 549.023438 883.949219 C 554.390625 886.753906 553.941406 899.8125 548.054688 913.179688 C 542.617188 927.347656 533.609375 937.148438 527.964844 934.929688 C 522.320312 932.75 522.179688 919.449219 527.6875 905.214844 C 534.0625 890.632812 543.621094 881.109375 549.023438 883.949219 " fill-opacity="1" fill-rule="nonzero"/><path fill="#60bba8" d="M 507.738281 978.640625 C 513.140625 981.550781 512.03125 995.613281 505.800781 1012.511719 C 498.699219 1031.320312 486.957031 1040.324219 481.832031 1037.761719 C 476.222656 1034.992188 480.03125 1019.371094 485.46875 1004.6875 C 491.496094 988.027344 502.4375 975.800781 507.738281 978.640625 " fill-opacity="1" fill-rule="nonzero"/><path fill="#60bba8" d="M 319.464844 967.003906 C 319.464844 966.933594 319.394531 966.933594 319.359375 966.933594 C 319.359375 966.796875 319.359375 966.65625 319.359375 966.621094 C 319.359375 966.796875 319.394531 966.863281 319.464844 967.003906 " fill-opacity="1" fill-rule="nonzero"/></svg>