<svg xmlns="http://www.w3.org/2000/svg" xmlns:xlink="http://www.w3.org/1999/xlink" width="2000" zoomAndPan="magnify" viewBox="0 0 1500 1499.999933" height="2000" preserveAspectRatio="xMidYMid meet" version="1.0"><defs><clipPath id="b2effeab69"><path d="M 485 434 L 1015.039062 434 L 1015.039062 1066.054688 L 485 1066.054688 Z M 485 434 " clip-rule="nonzero"/></clipPath></defs><g clip-path="url(#b2effeab69)"><path fill="#ff8181" d="M 678.238281 481.320312 C 679.171875 478.097656 680.441406 474.949219 681.457031 471.746094 C 684.308594 462.746094 686.726562 451.523438 692.375 443.832031 C 696.308594 438.46875 701.425781 435.484375 707.960938 434.441406 C 713.523438 434.023438 733.203125 433.914062 737.925781 435.6875 C 741.328125 436.96875 744.332031 440.277344 746.613281 443 C 755.605469 453.746094 760.804688 466.960938 765.605469 479.941406 C 767.289062 484.496094 768.824219 489.15625 770.832031 493.574219 C 773.882812 486.832031 782.8125 465.21875 788.808594 462.277344 C 795.300781 459.09375 815.398438 464.203125 822.300781 466.578125 C 824.128906 467.207031 826.136719 467.972656 827.621094 469.234375 C 832.558594 473.453125 837.066406 484.851562 839.996094 490.917969 C 842 486.648438 844.042969 482.398438 846.132812 478.167969 C 848.71875 473.019531 851.398438 466.417969 857.371094 464.585938 C 865.804688 461.992188 884.242188 464.9375 891.855469 469.109375 C 902.015625 474.679688 913.050781 507.902344 916.269531 519.386719 C 919.136719 514.382812 924.460938 503.527344 928.210938 499.964844 C 929.507812 498.738281 931.085938 497.902344 932.808594 497.449219 C 938.234375 496.023438 953.089844 497.675781 957.777344 500.675781 C 965.03125 505.316406 969.289062 531.558594 970.996094 540.289062 C 974.597656 537.859375 978.71875 534.472656 982.9375 533.300781 C 985.605469 532.554688 988.273438 533.511719 990.574219 534.855469 C 1003.722656 542.535156 1011.527344 563.65625 1015.167969 577.738281 L 979.375 689.171875 C 980.40625 689.183594 981.429688 689.210938 982.453125 689.320312 C 989.289062 690.050781 995.398438 693.605469 999.644531 698.996094 C 1004.070312 704.613281 1005.460938 711.929688 1004.582031 718.925781 C 1004.148438 722.386719 1003.054688 725.566406 1002.136719 728.914062 C 1000.996094 733.066406 999.953125 737.25 998.871094 741.417969 C 993.761719 761.003906 988.464844 780.535156 982.980469 800.019531 C 971.421875 841.660156 961.089844 883.644531 949.648438 925.324219 L 933.148438 986.734375 C 930.613281 996.277344 928.558594 1006.1875 925.539062 1015.578125 C 925.066406 1017.046875 924.453125 1019.527344 923.179688 1020.445312 C 917.898438 1024.261719 912.113281 1027.394531 906.628906 1030.917969 C 897.527344 1036.890625 888.34375 1042.738281 879.082031 1048.460938 C 872.660156 1052.492188 864.796875 1058.707031 857.523438 1060.613281 C 852.382812 1061.957031 846.339844 1061.980469 841.054688 1062.425781 C 827.960938 1063.558594 814.84375 1064.425781 801.714844 1065.023438 C 793.171875 1065.085938 784.613281 1065.707031 776.070312 1065.90625 C 762.5 1066.089844 748.925781 1066.089844 735.359375 1065.90625 C 700.441406 1065.207031 665.597656 1062.5 630.992188 1057.792969 C 621.058594 1056.4375 606.074219 1056.027344 597.941406 1050.117188 C 593.1875 1046.660156 589.039062 1040.601562 586.890625 1035.195312 C 583.28125 1026.109375 580.925781 1015.433594 578.25 1005.984375 L 565.003906 959.953125 C 560.304688 943.59375 555.46875 927.273438 550.496094 910.996094 L 532.363281 848.71875 L 507.804688 765.175781 C 504.703125 755.003906 501.71875 744.796875 498.847656 734.554688 C 497.492188 729.820312 495.605469 724.800781 494.835938 719.945312 C 493.957031 714.378906 495.347656 708.695312 498.695312 704.167969 C 503.273438 698.0625 509.414062 696.171875 516.664062 695.140625 C 519.125 687.351562 520.660156 679.296875 522.867188 671.429688 C 520.660156 663.089844 517.109375 654.851562 514.136719 646.757812 L 493.957031 593.039062 C 491.613281 586.695312 488.300781 580.210938 486.621094 573.691406 C 485.394531 568.917969 484.769531 541.320312 485.179688 535.691406 C 485.28125 534.339844 485.4375 532.6875 486.214844 531.535156 C 489.101562 527.25 518.714844 517.507812 524.085938 516.730469 C 529.835938 515.894531 543.253906 525.644531 548.027344 529.109375 C 554.539062 526.839844 560.980469 524.078125 567.738281 522.640625 C 568.199219 512.199219 569.480469 497.507812 572.710938 487.542969 C 573.597656 484.816406 574.570312 483.335938 577.164062 482.070312 C 583.042969 479.207031 605.613281 471.261719 611.90625 470.527344 C 614.601562 470.214844 617.214844 470.519531 619.777344 471.410156 C 637.132812 477.453125 654.121094 512.539062 662.058594 528.824219 C 663.929688 523.203125 668.605469 506.96875 671.140625 502.882812 C 673.273438 499.445312 678.90625 498.832031 682.570312 498.125 C 681.300781 492.480469 679.476562 486.976562 678.238281 481.320312 Z M 711.394531 443.113281 C 706.90625 443.378906 703.265625 444.429688 700.1875 447.941406 C 693.769531 455.269531 691.847656 467.648438 688.890625 476.730469 L 704.542969 474.910156 C 708.105469 474.558594 711.703125 474.28125 715.25 473.804688 C 719.25 463.539062 723.3125 453.179688 728.28125 443.335938 C 722.652344 443.222656 717.023438 443.148438 711.394531 443.113281 Z M 736.824219 445.15625 C 731.605469 456.171875 726.777344 467.371094 722.351562 478.730469 C 725.074219 485.773438 727.148438 493.089844 729.570312 500.242188 C 734.125 513.675781 738.84375 527.089844 742.847656 540.699219 C 748.996094 561.609375 754.222656 582.789062 760.234375 603.726562 L 768.535156 604.742188 C 771.726562 605.226562 774.910156 605.707031 778.125 606.039062 C 776.488281 586.519531 773.574219 567.128906 769.394531 547.992188 C 767.980469 541.414062 766.457031 534.863281 764.824219 528.339844 C 763.863281 524.457031 762.074219 519.738281 762.019531 515.746094 C 761.972656 512.558594 764.445312 508.746094 765.789062 505.894531 C 764.1875 500.054688 761.96875 494.3125 759.917969 488.609375 C 754.566406 473.730469 748.707031 456.160156 736.824219 445.15625 Z M 793.492188 469.453125 C 787.890625 474.234375 776.507812 500.921875 773.746094 509.027344 C 781.886719 510.328125 790.015625 511.691406 798.136719 513.121094 C 799.097656 513.207031 799.175781 513.304688 799.953125 512.757812 C 802.75 506.855469 804.832031 500.53125 807.480469 494.535156 C 810.527344 487.644531 814.140625 481.035156 817.230469 474.179688 C 809.742188 471.710938 801.355469 470.019531 793.492188 469.453125 Z M 863.703125 472.582031 C 862.148438 472.792969 860.582031 472.96875 859.046875 473.300781 C 854.304688 478.539062 845.738281 498.683594 842.097656 506.238281 C 839.675781 511.265625 836.863281 516.257812 834.714844 521.394531 C 842.589844 522.824219 850.617188 524.160156 858.328125 526.316406 C 859.449219 526.542969 860.570312 526.800781 861.695312 526.988281 C 870.683594 510.367188 878.152344 493.105469 886.472656 476.164062 C 879.226562 473.371094 871.46875 471.988281 863.703125 472.582031 Z M 824.300781 479.332031 C 817.765625 492.476562 810.960938 506.097656 806.648438 520.171875 C 816.328125 549.515625 820 580.453125 826.085938 610.640625 L 827.09375 614.835938 C 827.40625 603.152344 826.332031 591.464844 825.4375 579.828125 L 823.777344 554.910156 C 823.265625 547.695312 821.160156 533.554688 822.792969 527.035156 C 824.984375 518.292969 831.132812 510.460938 834.523438 502.078125 C 832.5625 495.644531 828.515625 484.363281 824.300781 479.332031 Z M 617.316406 479.484375 L 613.046875 504.84375 C 612.226562 509.589844 611.566406 514.578125 610.234375 519.214844 C 614.871094 529.660156 619.625 540.050781 624.496094 550.390625 C 628.039062 558.023438 631.453125 565.878906 635.480469 573.273438 C 637.730469 568.648438 639.9375 564.003906 642.105469 559.335938 C 643.902344 556.007812 645.773438 553.296875 649.609375 552.160156 C 653.734375 550.941406 658.679688 551.726562 662.914062 552.070312 C 653.71875 533.773438 635.851562 487.242188 617.316406 479.484375 Z M 607.988281 480.46875 C 599.074219 482.96875 589.1875 486.125 581.105469 490.691406 C 578.101562 500.960938 576.804688 512.472656 576.367188 523.144531 C 577.144531 523.792969 577.910156 524.472656 578.707031 525.09375 C 579.640625 525.574219 579.972656 525.476562 580.960938 525.132812 C 588.15625 522.640625 595.015625 519.3125 602.304688 516.980469 C 602.980469 511.035156 608.902344 482.933594 608.460938 480.5625 Z M 713.640625 482.554688 C 705.082031 483.519531 696.492188 484.316406 687.960938 485.511719 C 689.769531 492.71875 692.203125 499.566406 694.398438 506.648438 C 700.015625 524.753906 706.152344 542.667969 711.78125 560.761719 C 714.589844 569.78125 717.5625 578.890625 719.992188 588.015625 C 725.898438 610.191406 730.433594 632.914062 734.429688 655.496094 C 734.929688 658.261719 735.386719 661.035156 735.796875 663.816406 C 736.125 658.753906 736.304688 653.683594 736.332031 648.613281 C 736.332031 644.597656 735.609375 639.917969 736.429688 636.035156 C 737.945312 628.898438 748.058594 617.238281 753.042969 611.492188 C 749.910156 597.261719 746.03125 583.097656 742.117188 569.0625 C 739.332031 559.070312 736.601562 549.035156 733.496094 539.140625 C 729.683594 526.996094 725.4375 514.996094 721.511719 502.890625 C 720.496094 499.761719 715.742188 483.851562 714.210938 482.515625 Z M 892.460938 483.023438 C 887.566406 493.265625 883.09375 503.726562 878.027344 513.878906 C 874.726562 520.5 870.691406 526.933594 867.621094 533.628906 C 869.0625 538.515625 868.964844 544.328125 869.304688 549.398438 C 869.855469 557.644531 870.289062 566.007812 871.277344 574.203125 C 876.546875 574.894531 881.828125 575.539062 887.042969 576.578125 L 893.214844 577.835938 C 896.546875 560.816406 900.847656 544.640625 910.089844 529.773438 C 905.511719 513.996094 901.867188 496.863281 892.460938 483.023438 Z M 936.519531 505.371094 C 934.917969 505.621094 934.492188 505.703125 933.5 507.035156 C 929.839844 511.960938 926.910156 517.648438 923.71875 522.894531 C 913.476562 539.707031 907.199219 552.144531 902.980469 571.546875 C 901.765625 577.121094 901.011719 582.753906 899.925781 588.34375 C 901.347656 592.617188 902.835938 596.863281 904.398438 601.085938 C 905.90625 605.117188 908.371094 609.925781 908.863281 614.179688 C 909.445312 619.222656 906.886719 636.019531 906.199219 642.25 L 900.984375 691.464844 C 900.300781 697.976562 899.390625 704.457031 898.800781 710.976562 C 898.460938 714.757812 896.953125 725.40625 897.5 728.640625 C 898.195312 728.488281 898.25 728.285156 898.621094 727.703125 C 900.671875 724.476562 901.769531 719.910156 903.042969 716.296875 C 910.171875 695.816406 917.605469 675.191406 922.746094 654.113281 C 925.523438 642.734375 927.828125 631.160156 930 619.652344 C 931.90625 609.566406 938.070312 571.734375 942.078125 564.675781 C 946.558594 556.777344 957.726562 551.984375 963.617188 545.195312 C 960.894531 534.65625 958.332031 516.996094 953.300781 508.023438 C 947.878906 506.429688 942.1875 505.390625 936.519531 505.371094 Z M 684.585938 506.375 C 682.492188 506.828125 680.386719 507.261719 678.308594 507.796875 C 674.894531 517.933594 671.132812 528.039062 668.070312 538.285156 C 670.078125 543.082031 672.46875 547.773438 674.222656 552.667969 C 680.675781 552.816406 686.496094 553.71875 691.269531 558.53125 C 698.992188 566.3125 715.636719 623.496094 719.410156 637.199219 C 721.789062 645.886719 723.96875 654.628906 725.957031 663.417969 C 727.066406 667.71875 727.996094 672.230469 729.464844 676.417969 C 728.542969 669.546875 727.125 662.714844 725.863281 655.898438 C 723.40625 641.949219 720.558594 628.078125 717.320312 614.289062 C 715.273438 605.34375 713.550781 596.15625 711.0625 587.335938 C 708.84375 579.480469 706.003906 571.722656 703.523438 563.9375 L 692.191406 527.6875 C 691.261719 524.78125 686.164062 507.703125 684.585938 506.375 Z M 770.621094 517.078125 C 775.695312 536.097656 780.09375 555.097656 783.085938 574.574219 C 784.78125 585.625 785.847656 596.679688 787.035156 607.78125 C 797.234375 610.015625 800.105469 610.824219 805.914062 619.90625 C 810.230469 626.660156 818.847656 641.277344 819.839844 648.992188 C 820.292969 652.515625 819.125 656.957031 818.632812 660.503906 C 816.964844 672.496094 814.855469 684.394531 812.953125 696.347656 C 810 713.941406 807.496094 731.609375 805.4375 749.328125 C 805.164062 751.679688 803.351562 765.140625 803.75 765.757812 C 803.859375 765.929688 804.09375 765.972656 804.269531 766.082031 C 804.96875 766.03125 805.628906 765.980469 806.320312 765.832031 C 808.683594 765.296875 811.082031 764.824219 813.367188 764.011719 C 816.0625 739.261719 818.121094 714.375 820.382812 689.578125 C 820.9375 683.140625 821.558594 676.710938 822.242188 670.289062 C 822.746094 665.574219 823.527344 660.734375 823.480469 655.992188 C 823.398438 647.851562 821.070312 638.359375 819.914062 630.175781 C 817.34375 611.214844 814.222656 592.328125 810.558594 573.550781 C 807.3125 556.152344 803.898438 538.503906 798.269531 521.691406 C 789.09375 519.96875 779.820312 518.675781 770.621094 517.078125 Z M 603.121094 525.460938 C 597.433594 527.96875 591.527344 529.933594 585.84375 532.457031 C 601.199219 552.859375 614.160156 574.960938 624.476562 598.320312 C 625.808594 601.238281 627.097656 604.183594 628.675781 606.976562 C 627.800781 602.761719 626.238281 598.71875 625.515625 594.480469 C 626.71875 590.75 628.691406 587.277344 630.53125 583.832031 C 626.402344 577.660156 605.15625 526.050781 603.121094 525.460938 Z M 519.707031 527.128906 C 510.898438 530.039062 502.042969 532.945312 493.695312 537.042969 C 493.734375 541.515625 493.328125 562.203125 494.382812 565.378906 C 495.152344 565.535156 494.800781 565.566406 495.441406 565.363281 C 504.113281 563.070312 512.710938 560.507812 521.363281 558.1875 C 521.375 551.683594 521.257812 545.179688 521.023438 538.679688 C 520.921875 535.035156 521.027344 531.234375 520.617188 527.625 C 520.042969 527.0625 520.367188 527.1875 519.707031 527.128906 Z M 529.121094 527.554688 C 529.207031 531.109375 529.5 534.824219 529.296875 538.363281 C 530.816406 537.019531 532.304688 535.769531 534.234375 535.035156 L 538.4375 533.417969 C 535.449219 531.195312 532.441406 529.246094 529.121094 527.554688 Z M 830.757812 530.085938 C 830.890625 535.148438 831.441406 540.191406 831.773438 545.242188 C 832.953125 563.144531 834.703125 581.238281 835.125 599.167969 C 838.492188 593.015625 841.414062 586.613281 844.457031 580.296875 C 845.898438 577.308594 847.078125 574.730469 850.457031 573.570312 C 853.992188 572.351562 858.578125 572.855469 862.292969 572.90625 C 860.957031 560.433594 861.207031 547.863281 859.296875 535.421875 C 850.378906 532.796875 840.078125 530.113281 830.757812 530.085938 Z M 565.628906 532.152344 C 556.671875 534.882812 544.632812 538.683594 536.816406 543.742188 C 534.640625 548.015625 526.9375 563.84375 527.425781 567.796875 C 528.148438 568.078125 528.699219 568.164062 529.472656 568.199219 C 538.320312 568.511719 547.15625 568.992188 555.984375 569.648438 C 557.230469 564.855469 566.808594 533.875 566.296875 532.242188 Z M 574.808594 533.324219 C 571.566406 546.523438 567.917969 559.617188 563.875 572.589844 C 570.636719 585.429688 577.648438 598.097656 583.949219 611.179688 C 601.792969 648.222656 617.195312 686.691406 631.839844 725.09375 C 636.675781 737.773438 641.964844 750.191406 646.410156 763.035156 L 654.445312 765.253906 C 657.316406 766.042969 660.179688 766.828125 663.082031 767.5 C 657.886719 744.433594 653 721.296875 648.433594 698.097656 C 646.8125 689.964844 645.136719 681.839844 643.40625 673.730469 C 642.484375 669.273438 641.777344 664.625 640.523438 660.253906 C 637.78125 650.722656 633.445312 641.128906 629.671875 631.960938 C 616.796875 600.679688 602.449219 568.585938 581.6875 541.652344 C 579.617188 538.964844 577.320312 535.566406 574.808594 533.324219 Z M 985.839844 541.695312 C 979.171875 544.082031 958.503906 560.144531 952.558594 565.507812 C 959.324219 573.425781 967.285156 580.253906 974.347656 587.898438 L 976.273438 589.757812 C 983.402344 585.035156 997.519531 575.5 1005.070312 572.789062 C 1002.054688 562.324219 995.972656 547.808594 986.285156 541.933594 C 986.140625 541.847656 985.988281 541.773438 985.839844 541.695312 Z M 651.078125 560.78125 C 648.394531 565.128906 646.390625 570.042969 644.234375 574.671875 C 641.339844 580.878906 638.324219 587.019531 635.570312 593.289062 C 645.628906 593.847656 655.753906 594.484375 665.828125 594.503906 C 671.164062 583.84375 676.769531 573.085938 681.363281 562.09375 C 671.445312 561.410156 661 560.148438 651.078125 560.78125 Z M 517.382812 568.328125 C 510.214844 569.605469 503.199219 572.433594 496.074219 574.121094 C 507.207031 604.71875 519.285156 635.007812 530.675781 665.511719 L 542.960938 698.996094 C 544.4375 702.96875 546.109375 709.730469 548.613281 712.925781 C 552.722656 718.175781 575.03125 731.953125 581.480469 735.78125 C 585.804688 738.222656 590.171875 740.882812 594.699219 742.933594 L 578.253906 702.667969 C 569.265625 681.03125 559.851562 659.570312 550.011719 638.308594 C 543.683594 624.554688 537.054688 610.941406 530.132812 597.476562 C 526.714844 590.71875 520.867188 580.609375 518.585938 573.84375 C 517.980469 572.046875 518.199219 570.253906 517.726562 568.46875 Z M 687.699219 569.105469 C 682.289062 579.738281 677.515625 590.761719 671.765625 601.210938 C 683.375 634.582031 693.355469 668.496094 701.679688 702.832031 C 707.292969 726.234375 711.972656 749.808594 717.058594 773.324219 C 717.269531 773.8125 717.230469 774.132812 717.777344 774.308594 C 720.300781 775.121094 724.234375 774.664062 726.890625 774.65625 C 728.609375 765.445312 728.726562 754.597656 729.421875 745.136719 C 729.898438 738.625 731.21875 730.28125 730.625 723.933594 C 730.296875 720.425781 729.359375 716.847656 728.65625 713.394531 C 727.386719 707.140625 726.082031 700.898438 724.742188 694.664062 C 716.734375 657.835938 706.648438 621.496094 694.523438 585.8125 C 693.109375 581.6875 690.605469 572.496094 688.046875 569.441406 C 687.945312 569.316406 687.816406 569.21875 687.699219 569.105469 Z M 947.652344 573.691406 C 946.40625 580.640625 944.765625 587.464844 943.328125 594.371094 C 941.722656 602.070312 940.359375 609.839844 938.851562 617.566406 C 935.679688 633.84375 932.9375 650.410156 928.542969 666.417969 C 924.21875 682.171875 918.554688 697.523438 913.605469 713.085938 C 912.542969 716.4375 911.253906 719.769531 910.304688 723.148438 C 915.789062 720.867188 921.066406 717.949219 926.335938 715.210938 L 937.191406 709.632812 C 941.9375 693.03125 947.304688 676.632812 952.34375 660.121094 L 971.140625 597.089844 C 967.695312 594.582031 964.863281 590.984375 961.996094 587.847656 C 958.691406 584.179688 955.261719 580.625 951.710938 577.1875 C 950.523438 576.046875 949.113281 574.40625 947.652344 573.691406 Z M 529.433594 576.828125 C 532.550781 584.0625 536.726562 590.992188 540.308594 598.019531 C 546.464844 610.320312 552.445312 622.710938 558.246094 635.1875 C 572.050781 665.679688 585.21875 696.457031 597.742188 727.5 C 600.582031 734.429688 603.207031 741.460938 606.066406 748.378906 C 614.359375 753.722656 626.8125 756.980469 636.300781 759.925781 C 622.285156 722.75 607.394531 685.910156 591.640625 649.4375 C 583.449219 630.554688 575.253906 611.6875 565.4375 593.574219 C 562.609375 588.359375 559.792969 582.921875 556.507812 577.980469 C 547.515625 577.582031 538.429688 576.886719 529.433594 576.828125 Z M 853.1875 581.335938 C 849.421875 589.515625 845.921875 598.1875 841.457031 606.003906 C 848.300781 608.921875 865.132812 613.273438 872.675781 614.132812 C 873.527344 613.058594 874.398438 612 875.230469 610.914062 C 880.816406 603.300781 885.109375 595.375 888.882812 586.734375 C 877.546875 583.414062 865.011719 581.511719 853.1875 581.335938 Z M 1003.566406 583.417969 C 996.132812 587.34375 986.871094 591.949219 980.257812 597.042969 C 977.9375 603.921875 976.1875 611.015625 974.140625 617.980469 C 969.625 633.371094 965.078125 648.878906 960.246094 664.167969 C 959.027344 668.03125 947.601562 702.179688 947.953125 703.957031 L 948.246094 703.925781 C 954.996094 700.804688 961.804688 697.574219 968.320312 693.988281 C 972.839844 683.566406 975.886719 672.085938 979.402344 661.277344 L 1000.609375 594.105469 C 1001.324219 591.789062 1004.175781 585.472656 1004.011719 583.5625 Z M 893.308594 597.363281 C 888.765625 606.054688 884.34375 614.359375 877.816406 621.773438 C 876.734375 647.859375 876.175781 673.972656 874.859375 700.054688 C 874.296875 709.648438 873.667969 719.234375 872.972656 728.816406 C 872.691406 733.09375 872.199219 737.476562 872.210938 741.757812 C 873.808594 741.109375 875.425781 740.492188 876.984375 739.75 C 880.421875 737.894531 883.835938 735.902344 887.328125 734.160156 L 895.222656 661.507812 C 896.453125 651.0625 897.722656 640.648438 898.738281 630.179688 C 899.1875 625.550781 900.035156 620.554688 899.765625 615.914062 C 899.59375 612.917969 895.023438 599.710938 893.308594 597.363281 Z M 635.988281 601.660156 C 642.894531 628.777344 648.339844 656.230469 653.984375 683.625 L 662.085938 721.238281 L 668.847656 752.816406 C 670.035156 758.402344 670.890625 764.238281 672.488281 769.71875 C 683.921875 771.980469 695.984375 773.148438 707.617188 773.828125 C 702.671875 740.890625 694.101562 708.90625 685.769531 676.722656 C 681.464844 659.410156 676.5 642.273438 670.886719 625.339844 C 668.53125 618.042969 666.375 610.261719 663.269531 603.253906 C 654.179688 602.800781 645.078125 601.976562 635.988281 601.660156 Z M 763.308594 612.570312 C 757.390625 618.765625 750.097656 627.523438 746.542969 635.3125 C 756.878906 637.53125 767.128906 639.148438 777.65625 640.097656 L 781.804688 640.402344 C 787.660156 634.035156 791.359375 626.746094 794.332031 618.683594 C 786.222656 615.421875 772.105469 613.261719 763.308594 612.570312 Z M 836.339844 613.726562 C 833.292969 642.207031 830.796875 670.773438 828.070312 699.289062 C 826.839844 711.992188 825.699219 724.707031 824.652344 737.425781 C 823.992188 745.394531 823.167969 753.40625 823 761.398438 C 831.625 758.671875 840.152344 755.941406 848.578125 752.644531 C 853.292969 750.644531 857.992188 748.535156 862.835938 746.875 C 864.4375 728.027344 865.722656 709.15625 866.695312 690.265625 C 867.710938 667.5625 868.121094 644.792969 869.457031 622.113281 C 858.363281 620.0625 847.011719 617.386719 836.339844 613.726562 Z M 800.089844 626.84375 C 796.28125 634.902344 791.804688 641.84375 786.714844 649.148438 C 786.113281 659.4375 786.078125 669.75 785.613281 680.046875 C 784.394531 710.601562 782.636719 741.132812 780.34375 771.625 C 783.597656 771.171875 786.808594 770.496094 790.027344 769.84375 L 794.25 769.042969 C 796.089844 754.199219 797.664062 739.246094 799.925781 724.460938 C 803.710938 699.738281 808.320312 675.054688 811.488281 650.25 C 808.828125 643.664062 804.257812 632.375 800.089844 626.84375 Z M 745.007812 643.703125 C 744.851562 658.425781 743.457031 673.1875 742.3125 687.855469 C 741.410156 699.484375 740.800781 711.132812 739.835938 722.753906 C 738.40625 740.011719 736.675781 757.363281 735.878906 774.660156 C 746.445312 774.585938 757.007812 774.128906 767.542969 773.292969 L 771.207031 772.875 C 774.355469 744.765625 775.347656 716.28125 776.441406 688.035156 L 777.464844 663.921875 C 777.699219 658.914062 778.097656 653.851562 778.03125 648.835938 C 771.453125 648.03125 764.894531 647.074219 758.359375 645.96875 C 753.996094 645.214844 749.414062 644.027344 745.007812 643.703125 Z M 528.011719 683.507812 C 527.082031 688.226562 526.074219 692.941406 525.246094 697.675781 C 528.246094 699.085938 531.191406 700.59375 533.976562 702.410156 L 534.808594 702.8125 C 534.914062 701.625 528.726562 684.546875 528.011719 683.507812 Z M 980.796875 698.292969 C 979.746094 698.417969 978.714844 698.546875 977.742188 698.980469 C 973.722656 700.769531 969.929688 703.375 965.949219 705.335938 C 958.074219 709.21875 950.355469 713.351562 942.519531 717.296875 C 936.207031 720.476562 929.800781 723.457031 923.578125 726.816406 C 927.613281 730.0625 930.933594 733.527344 934.160156 737.578125 C 934.460938 737.957031 934.476562 738.265625 934.992188 738.171875 C 935.753906 738.027344 936.378906 737.523438 937.007812 737.097656 C 949.085938 730.550781 961.65625 724.644531 974.070312 718.753906 C 980.980469 715.476562 987.742188 711.96875 994.753906 708.902344 C 993.070312 704.847656 990.9375 701.367188 986.71875 699.539062 C 984.796875 698.707031 982.871094 698.40625 980.796875 698.292969 Z M 514.269531 704.515625 C 510.316406 705.609375 506.839844 706.8125 504.769531 710.664062 C 503.175781 713.632812 503.050781 716.96875 503.761719 720.207031 C 504.65625 724.300781 506.148438 728.363281 507.382812 732.371094 L 513.710938 753.230469 L 535.054688 825.503906 L 571.472656 949.902344 L 588.003906 1007.230469 C 590.226562 1014.769531 592.246094 1022.363281 594.707031 1029.835938 C 596.550781 1035.4375 600.136719 1041.367188 605.542969 1044.066406 C 611.449219 1047.011719 631.097656 1049.191406 638.375 1050.085938 C 702.527344 1058.011719 767.3125 1059.507812 831.761719 1054.550781 C 838.226562 1054.058594 848.738281 1054.101562 854.59375 1052.105469 C 861.046875 1049.90625 865.945312 1044.371094 868.726562 1038.316406 C 872.441406 1030.230469 873.746094 1020.34375 875.46875 1011.613281 C 877.152344 1003.0625 878.925781 994.527344 880.789062 986.015625 C 881.757812 981.433594 882.53125 976.714844 883.699219 972.1875 L 916.890625 803.542969 L 924.886719 764.246094 C 925.882812 759.410156 927.875 752.835938 928.238281 748.09375 C 928.433594 745.554688 927.175781 742.800781 925.761719 740.765625 C 922.660156 736.304688 918.011719 732.855469 912.652344 731.847656 C 912.511719 731.890625 912.375 731.933594 912.238281 731.980469 C 905.179688 734.34375 896.953125 739.476562 890.242188 742.949219 C 877.351562 749.621094 864.089844 756.191406 850.515625 761.328125 C 830.527344 768.894531 809.707031 775.210938 788.660156 779.003906 C 767.449219 782.828125 746.363281 784.0625 724.839844 783.59375 C 680.351562 782.628906 637.097656 773.78125 596.933594 754.191406 C 578.105469 745.007812 560.851562 733.679688 543.863281 721.5 C 537.050781 716.617188 530.464844 710.277344 523.101562 706.292969 C 520.148438 704.691406 517.574219 704.257812 514.269531 704.515625 Z M 995.210938 718.671875 C 980.960938 725.105469 966.839844 731.816406 952.855469 738.804688 C 947.460938 741.4375 942.09375 744.449219 936.621094 746.878906 C 936.371094 753.621094 934.683594 760.082031 933.351562 766.664062 L 928.058594 792.367188 C 925.292969 805.152344 923.109375 818.074219 920.472656 830.890625 L 893.683594 966.914062 L 884.46875 1011.035156 C 882.558594 1019.878906 880.320312 1028.808594 878.855469 1037.734375 L 879.179688 1038.050781 L 879.347656 1038.035156 C 888.480469 1031.367188 898.597656 1025.957031 908.027344 1019.683594 C 910.949219 1017.734375 914.003906 1015.871094 916.675781 1013.585938 C 918.59375 1008.359375 919.964844 1002.847656 921.457031 997.480469 L 930.097656 965.308594 L 958.671875 857.316406 L 986.472656 753.847656 C 987.890625 748.597656 995.9375 722.417969 995.738281 718.785156 Z M 995.210938 718.671875 " fill-opacity="1" fill-rule="nonzero"/></g><path fill="#fff9f9" d="M 688.890625 476.730469 C 691.847656 467.648438 693.769531 455.269531 700.1875 447.941406 C 703.265625 444.429688 706.90625 443.378906 711.394531 443.113281 C 717.023438 443.148438 722.652344 443.222656 728.28125 443.339844 C 723.3125 453.179688 719.25 463.539062 715.25 473.808594 C 711.703125 474.28125 708.105469 474.558594 704.542969 474.910156 Z M 688.890625 476.730469 " fill-opacity="1" fill-rule="nonzero"/><path fill="#fff9f9" d="M 722.351562 478.730469 C 726.777344 467.371094 731.605469 456.175781 736.824219 445.15625 C 748.707031 456.160156 754.566406 473.730469 759.917969 488.609375 C 761.96875 494.3125 764.1875 500.054688 765.789062 505.898438 C 764.445312 508.746094 761.972656 512.5625 762.019531 515.75 C 762.074219 519.738281 763.863281 524.457031 764.824219 528.34375 C 766.457031 534.867188 767.980469 541.417969 769.394531 547.992188 C 773.574219 567.128906 776.488281 586.519531 778.125 606.039062 C 774.910156 605.707031 771.726562 605.230469 768.535156 604.742188 L 760.234375 603.726562 C 754.222656 582.789062 748.996094 561.609375 742.847656 540.699219 C 738.84375 527.089844 734.125 513.675781 729.570312 500.242188 C 727.148438 493.089844 725.074219 485.773438 722.351562 478.730469 Z M 722.351562 478.730469 " fill-opacity="1" fill-rule="nonzero"/><path fill="#fff9f9" d="M 773.746094 509.027344 C 776.507812 500.921875 787.890625 474.234375 793.492188 469.453125 C 801.355469 470.019531 809.742188 471.710938 817.230469 474.179688 C 814.140625 481.03125 810.527344 487.644531 807.480469 494.535156 C 804.832031 500.53125 802.75 506.855469 799.953125 512.757812 C 799.175781 513.300781 799.097656 513.207031 798.136719 513.121094 C 790.015625 511.691406 781.886719 510.328125 773.746094 509.027344 Z M 773.746094 509.027344 " fill-opacity="1" fill-rule="nonzero"/><path fill="#fff9f9" d="M 859.046875 473.300781 C 860.582031 472.96875 862.148438 472.792969 863.703125 472.582031 C 871.46875 471.988281 879.226562 473.371094 886.472656 476.164062 C 878.152344 493.105469 870.683594 510.367188 861.695312 526.988281 C 860.570312 526.800781 859.449219 526.542969 858.328125 526.316406 C 850.617188 524.160156 842.589844 522.824219 834.714844 521.394531 C 836.863281 516.257812 839.675781 511.265625 842.097656 506.238281 C 845.738281 498.683594 854.304688 478.539062 859.046875 473.300781 Z M 859.046875 473.300781 " fill-opacity="1" fill-rule="nonzero"/><path fill="#fff9f9" d="M 806.648438 520.171875 C 810.960938 506.097656 817.765625 492.476562 824.300781 479.332031 C 828.515625 484.363281 832.5625 495.644531 834.523438 502.078125 C 831.132812 510.460938 824.984375 518.292969 822.792969 527.035156 C 821.160156 533.554688 823.265625 547.695312 823.777344 554.910156 L 825.4375 579.828125 C 826.332031 591.464844 827.40625 603.152344 827.09375 614.835938 L 826.085938 610.640625 C 820 580.453125 816.328125 549.515625 806.648438 520.171875 Z M 806.648438 520.171875 " fill-opacity="1" fill-rule="nonzero"/><path fill="#fff9f9" d="M 610.234375 519.214844 C 611.566406 514.578125 612.226562 509.589844 613.046875 504.84375 L 617.316406 479.484375 C 635.851562 487.242188 653.71875 533.773438 662.914062 552.070312 C 658.679688 551.726562 653.734375 550.941406 649.609375 552.160156 C 645.773438 553.296875 643.902344 556.007812 642.105469 559.335938 C 639.9375 564.003906 637.730469 568.648438 635.480469 573.273438 C 631.453125 565.878906 628.039062 558.023438 624.496094 550.390625 C 619.625 540.050781 614.871094 529.660156 610.234375 519.214844 Z M 610.234375 519.214844 " fill-opacity="1" fill-rule="nonzero"/><path fill="#fff9f9" d="M 581.105469 490.691406 C 589.1875 486.125 599.074219 482.96875 607.988281 480.46875 L 608.460938 480.5625 C 608.902344 482.933594 602.980469 511.035156 602.304688 516.980469 C 595.015625 519.3125 588.15625 522.640625 580.960938 525.132812 C 579.972656 525.476562 579.640625 525.574219 578.707031 525.09375 C 577.910156 524.472656 577.144531 523.792969 576.367188 523.144531 C 576.804688 512.472656 578.101562 500.960938 581.105469 490.691406 Z M 581.105469 490.691406 " fill-opacity="1" fill-rule="nonzero"/><path fill="#fff9f9" d="M 687.960938 485.511719 C 696.492188 484.316406 705.082031 483.519531 713.640625 482.554688 L 714.210938 482.515625 C 715.742188 483.851562 720.496094 499.761719 721.511719 502.890625 C 725.4375 514.996094 729.683594 526.996094 733.496094 539.140625 C 736.601562 549.035156 739.332031 559.070312 742.117188 569.0625 C 746.03125 583.097656 749.910156 597.261719 753.042969 611.492188 C 748.058594 617.238281 737.945312 628.898438 736.429688 636.035156 C 735.609375 639.921875 736.332031 644.597656 736.332031 648.613281 C 736.304688 653.683594 736.125 658.753906 735.796875 663.816406 C 735.386719 661.035156 734.929688 658.261719 734.429688 655.496094 C 730.433594 632.914062 725.898438 610.191406 719.992188 588.015625 C 717.5625 578.890625 714.589844 569.78125 711.78125 560.761719 C 706.152344 542.667969 700.015625 524.753906 694.398438 506.648438 C 692.203125 499.566406 689.769531 492.71875 687.960938 485.511719 Z M 687.960938 485.511719 " fill-opacity="1" fill-rule="nonzero"/><path fill="#fff9f9" d="M 867.621094 533.628906 C 870.691406 526.933594 874.726562 520.5 878.027344 513.878906 C 883.09375 503.726562 887.566406 493.265625 892.460938 483.023438 C 901.867188 496.863281 905.511719 513.996094 910.089844 529.773438 C 900.847656 544.640625 896.546875 560.816406 893.214844 577.835938 L 887.042969 576.578125 C 881.828125 575.539062 876.546875 574.894531 871.277344 574.203125 C 870.289062 566.007812 869.855469 557.644531 869.304688 549.398438 C 868.964844 544.328125 869.0625 538.515625 867.621094 533.628906 Z M 867.621094 533.628906 " fill-opacity="1" fill-rule="nonzero"/><path fill="#fff9f9" d="M 899.925781 588.34375 C 901.011719 582.753906 901.765625 577.121094 902.980469 571.546875 C 907.199219 552.144531 913.476562 539.707031 923.71875 522.894531 C 926.910156 517.648438 929.839844 511.960938 933.5 507.035156 C 934.492188 505.703125 934.917969 505.621094 936.519531 505.371094 C 942.1875 505.390625 947.878906 506.429688 953.300781 508.023438 C 958.332031 516.996094 960.894531 534.65625 963.617188 545.195312 C 957.722656 551.984375 946.558594 556.777344 942.078125 564.675781 C 938.070312 571.734375 931.90625 609.566406 930 619.652344 C 927.828125 631.160156 925.523438 642.734375 922.746094 654.113281 C 917.605469 675.191406 910.171875 695.816406 903.042969 716.296875 C 901.769531 719.910156 900.671875 724.476562 898.621094 727.703125 C 898.25 728.285156 898.195312 728.488281 897.5 728.640625 C 896.953125 725.40625 898.460938 714.757812 898.800781 710.976562 C 899.390625 704.457031 900.300781 697.976562 900.984375 691.464844 L 906.199219 642.25 C 906.886719 636.019531 909.445312 619.222656 908.863281 614.179688 C 908.371094 609.925781 905.90625 605.117188 904.398438 601.085938 C 902.835938 596.863281 901.347656 592.617188 899.925781 588.34375 Z M 899.925781 588.34375 " fill-opacity="1" fill-rule="nonzero"/><path fill="#fff9f9" d="M 678.308594 507.796875 C 680.386719 507.261719 682.492188 506.828125 684.585938 506.375 C 686.164062 507.703125 691.261719 524.78125 692.191406 527.6875 L 703.523438 563.9375 C 706.003906 571.722656 708.84375 579.480469 711.0625 587.335938 C 713.550781 596.15625 715.273438 605.34375 717.320312 614.289062 C 720.558594 628.078125 723.40625 641.949219 725.863281 655.898438 C 727.125 662.714844 728.542969 669.546875 729.464844 676.417969 C 727.996094 672.230469 727.066406 667.71875 725.957031 663.417969 C 723.96875 654.628906 721.789062 645.886719 719.410156 637.199219 C 715.636719 623.496094 698.992188 566.3125 691.269531 558.53125 C 686.496094 553.71875 680.675781 552.816406 674.222656 552.667969 C 672.46875 547.773438 670.078125 543.082031 668.070312 538.285156 C 671.132812 528.039062 674.894531 517.933594 678.308594 507.796875 Z M 678.308594 507.796875 " fill-opacity="1" fill-rule="nonzero"/><path fill="#fff9f9" d="M 787.035156 607.78125 C 785.847656 596.679688 784.78125 585.625 783.085938 574.574219 C 780.09375 555.097656 775.695312 536.097656 770.621094 517.078125 C 779.820312 518.675781 789.09375 519.96875 798.269531 521.691406 C 803.898438 538.503906 807.3125 556.152344 810.558594 573.550781 C 814.222656 592.328125 817.34375 611.214844 819.914062 630.175781 C 821.070312 638.359375 823.398438 647.851562 823.480469 655.992188 C 823.527344 660.734375 822.746094 665.574219 822.242188 670.289062 C 821.558594 676.710938 820.9375 683.140625 820.382812 689.578125 C 818.121094 714.375 816.0625 739.261719 813.367188 764.011719 C 811.082031 764.824219 808.683594 765.296875 806.320312 765.832031 C 805.628906 765.980469 804.96875 766.03125 804.269531 766.082031 C 804.09375 765.972656 803.859375 765.929688 803.75 765.757812 C 803.351562 765.140625 805.164062 751.679688 805.4375 749.328125 C 807.496094 731.609375 810 713.941406 812.953125 696.347656 C 814.855469 684.394531 816.964844 672.496094 818.632812 660.503906 C 819.125 656.957031 820.292969 652.515625 819.839844 648.992188 C 818.847656 641.277344 810.230469 626.660156 805.914062 619.90625 C 800.105469 610.824219 797.234375 610.015625 787.035156 607.78125 Z M 787.035156 607.78125 " fill-opacity="1" fill-rule="nonzero"/><path fill="#fff9f9" d="M 585.84375 532.457031 C 591.527344 529.933594 597.433594 527.96875 603.121094 525.460938 C 605.15625 526.050781 626.402344 577.660156 630.53125 583.832031 C 628.691406 587.277344 626.71875 590.75 625.515625 594.480469 C 626.238281 598.71875 627.800781 602.761719 628.675781 606.976562 C 627.097656 604.183594 625.808594 601.238281 624.476562 598.320312 C 614.160156 574.960938 601.199219 552.859375 585.84375 532.457031 Z M 585.84375 532.457031 " fill-opacity="1" fill-rule="nonzero"/><path fill="#fff9f9" d="M 493.695312 537.042969 C 502.042969 532.945312 510.898438 530.039062 519.707031 527.128906 C 520.367188 527.1875 520.042969 527.0625 520.617188 527.625 C 521.027344 531.234375 520.921875 535.035156 521.023438 538.679688 C 521.257812 545.179688 521.375 551.683594 521.363281 558.1875 C 512.710938 560.507812 504.113281 563.070312 495.441406 565.363281 C 494.800781 565.566406 495.152344 565.535156 494.382812 565.378906 C 493.328125 562.203125 493.734375 541.515625 493.695312 537.042969 Z M 493.695312 537.042969 " fill-opacity="1" fill-rule="nonzero"/><path fill="#fff9f9" d="M 529.296875 538.363281 C 529.5 534.824219 529.207031 531.109375 529.121094 527.554688 C 532.441406 529.246094 535.449219 531.195312 538.4375 533.417969 L 534.234375 535.035156 C 532.304688 535.769531 530.816406 537.019531 529.296875 538.363281 Z M 529.296875 538.363281 " fill-opacity="1" fill-rule="nonzero"/><path fill="#fff9f9" d="M 835.125 599.167969 C 834.703125 581.238281 832.953125 563.144531 831.773438 545.242188 C 831.441406 540.191406 830.890625 535.148438 830.757812 530.085938 C 840.078125 530.113281 850.378906 532.796875 859.296875 535.421875 C 861.207031 547.863281 860.957031 560.433594 862.292969 572.90625 C 858.578125 572.855469 853.992188 572.351562 850.457031 573.570312 C 847.078125 574.730469 845.898438 577.308594 844.457031 580.296875 C 841.414062 586.613281 838.492188 593.015625 835.125 599.167969 Z M 835.125 599.167969 " fill-opacity="1" fill-rule="nonzero"/><path fill="#fff9f9" d="M 536.816406 543.742188 C 544.632812 538.683594 556.671875 534.882812 565.628906 532.152344 L 566.296875 532.242188 C 566.808594 533.875 557.230469 564.855469 555.984375 569.648438 C 547.15625 568.992188 538.320312 568.511719 529.472656 568.199219 C 528.699219 568.164062 528.148438 568.078125 527.425781 567.796875 C 526.9375 563.84375 534.640625 548.015625 536.816406 543.742188 Z M 536.816406 543.742188 " fill-opacity="1" fill-rule="nonzero"/><path fill="#fff9f9" d="M 563.875 572.589844 C 567.917969 559.617188 571.566406 546.523438 574.808594 533.324219 C 577.320312 535.566406 579.617188 538.964844 581.6875 541.652344 C 602.449219 568.585938 616.796875 600.679688 629.671875 631.960938 C 633.445312 641.128906 637.78125 650.722656 640.523438 660.253906 C 641.777344 664.625 642.484375 669.273438 643.40625 673.730469 C 645.136719 681.839844 646.8125 689.964844 648.433594 698.097656 C 653 721.296875 657.886719 744.433594 663.082031 767.5 C 660.179688 766.828125 657.316406 766.042969 654.445312 765.253906 L 646.410156 763.035156 C 641.964844 750.191406 636.675781 737.773438 631.839844 725.09375 C 617.195312 686.691406 601.792969 648.222656 583.949219 611.179688 C 577.648438 598.097656 570.636719 585.429688 563.875 572.589844 Z M 563.875 572.589844 " fill-opacity="1" fill-rule="nonzero"/><path fill="#fff9f9" d="M 952.558594 565.507812 C 958.503906 560.144531 979.171875 544.082031 985.839844 541.695312 C 985.988281 541.773438 986.140625 541.847656 986.285156 541.933594 C 995.972656 547.808594 1002.054688 562.324219 1005.070312 572.789062 C 997.519531 575.5 983.402344 585.035156 976.273438 589.757812 L 974.347656 587.898438 C 967.285156 580.253906 959.324219 573.425781 952.558594 565.507812 Z M 952.558594 565.507812 " fill-opacity="1" fill-rule="nonzero"/><path fill="#fff9f9" d="M 635.570312 593.289062 C 638.324219 587.019531 641.339844 580.878906 644.234375 574.671875 C 646.390625 570.042969 648.394531 565.128906 651.078125 560.78125 C 661 560.148438 671.445312 561.410156 681.363281 562.09375 C 676.769531 573.085938 671.164062 583.84375 665.828125 594.503906 C 655.753906 594.484375 645.628906 593.847656 635.570312 593.289062 Z M 635.570312 593.289062 " fill-opacity="1" fill-rule="nonzero"/><path fill="#fff9f9" d="M 496.074219 574.121094 C 503.199219 572.433594 510.214844 569.605469 517.382812 568.328125 L 517.726562 568.46875 C 518.199219 570.253906 517.980469 572.046875 518.585938 573.84375 C 520.867188 580.609375 526.714844 590.71875 530.132812 597.476562 C 537.054688 610.941406 543.683594 624.554688 550.011719 638.308594 C 559.851562 659.570312 569.265625 681.03125 578.253906 702.667969 L 594.699219 742.933594 C 590.171875 740.882812 585.804688 738.222656 581.480469 735.78125 C 575.03125 731.953125 552.722656 718.175781 548.613281 712.925781 C 546.109375 709.730469 544.4375 702.96875 542.960938 698.996094 L 530.675781 665.511719 C 519.285156 635.007812 507.207031 604.71875 496.074219 574.121094 Z M 496.074219 574.121094 " fill-opacity="1" fill-rule="nonzero"/><path fill="#fff9f9" d="M 671.765625 601.210938 C 677.515625 590.761719 682.289062 579.738281 687.699219 569.105469 C 687.816406 569.21875 687.945312 569.316406 688.046875 569.441406 C 690.605469 572.496094 693.109375 581.6875 694.523438 585.8125 C 706.648438 621.496094 716.734375 657.835938 724.742188 694.664062 C 726.082031 700.898438 727.386719 707.140625 728.65625 713.394531 C 729.359375 716.847656 730.296875 720.425781 730.625 723.933594 C 731.21875 730.28125 729.898438 738.625 729.421875 745.136719 C 728.726562 754.597656 728.609375 765.445312 726.890625 774.65625 C 724.234375 774.664062 720.300781 775.121094 717.777344 774.308594 C 717.230469 774.132812 717.269531 773.8125 717.058594 773.324219 C 711.972656 749.808594 707.292969 726.234375 701.679688 702.832031 C 693.355469 668.496094 683.375 634.582031 671.765625 601.210938 Z M 671.765625 601.210938 " fill-opacity="1" fill-rule="nonzero"/><path fill="#fff9f9" d="M 910.304688 723.148438 C 911.253906 719.769531 912.542969 716.4375 913.605469 713.085938 C 918.554688 697.523438 924.21875 682.171875 928.542969 666.417969 C 932.9375 650.410156 935.679688 633.84375 938.851562 617.566406 C 940.359375 609.839844 941.722656 602.070312 943.328125 594.371094 C 944.765625 587.464844 946.40625 580.640625 947.652344 573.691406 C 949.113281 574.40625 950.523438 576.046875 951.710938 577.1875 C 955.261719 580.625 958.691406 584.179688 961.996094 587.847656 C 964.863281 590.984375 967.695312 594.582031 971.140625 597.089844 L 952.34375 660.121094 C 947.304688 676.632812 941.9375 693.03125 937.191406 709.632812 L 926.335938 715.210938 C 921.066406 717.949219 915.789062 720.867188 910.304688 723.148438 Z M 910.304688 723.148438 " fill-opacity="1" fill-rule="nonzero"/><path fill="#fff9f9" d="M 606.066406 748.378906 C 603.207031 741.460938 600.582031 734.429688 597.742188 727.5 C 585.21875 696.457031 572.050781 665.679688 558.246094 635.1875 C 552.445312 622.710938 546.464844 610.320312 540.308594 598.019531 C 536.726562 590.992188 532.550781 584.0625 529.433594 576.828125 C 538.429688 576.886719 547.515625 577.582031 556.507812 577.980469 C 559.792969 582.921875 562.609375 588.359375 565.4375 593.574219 C 575.253906 611.6875 583.449219 630.554688 591.640625 649.4375 C 607.394531 685.910156 622.285156 722.75 636.300781 759.925781 C 626.8125 756.980469 614.359375 753.722656 606.066406 748.378906 Z M 606.066406 748.378906 " fill-opacity="1" fill-rule="nonzero"/><path fill="#fff9f9" d="M 841.457031 606.003906 C 845.921875 598.1875 849.421875 589.515625 853.1875 581.335938 C 865.011719 581.511719 877.546875 583.414062 888.882812 586.734375 C 885.109375 595.375 880.816406 603.300781 875.230469 610.914062 C 874.398438 612 873.527344 613.058594 872.675781 614.132812 C 865.132812 613.273438 848.300781 608.921875 841.457031 606.003906 Z M 841.457031 606.003906 " fill-opacity="1" fill-rule="nonzero"/><path fill="#fff9f9" d="M 980.257812 597.042969 C 986.871094 591.949219 996.132812 587.34375 1003.566406 583.417969 L 1004.011719 583.5625 C 1004.175781 585.472656 1001.324219 591.789062 1000.609375 594.105469 L 979.402344 661.277344 C 975.886719 672.085938 972.839844 683.566406 968.320312 693.988281 C 961.804688 697.574219 954.996094 700.804688 948.246094 703.925781 L 947.953125 703.957031 C 947.601562 702.179688 959.027344 668.03125 960.246094 664.167969 C 965.078125 648.878906 969.625 633.371094 974.140625 617.980469 C 976.1875 611.015625 977.9375 603.921875 980.257812 597.042969 Z M 980.257812 597.042969 " fill-opacity="1" fill-rule="nonzero"/><path fill="#fff9f9" d="M 877.816406 621.773438 C 884.34375 614.359375 888.765625 606.054688 893.308594 597.363281 C 895.023438 599.710938 899.59375 612.917969 899.765625 615.914062 C 900.035156 620.554688 899.1875 625.550781 898.738281 630.179688 C 897.722656 640.648438 896.453125 651.0625 895.222656 661.507812 L 887.328125 734.160156 C 883.835938 735.902344 880.421875 737.894531 876.984375 739.75 C 875.425781 740.492188 873.808594 741.109375 872.210938 741.757812 C 872.199219 737.476562 872.691406 733.09375 872.972656 728.816406 C 873.667969 719.234375 874.296875 709.648438 874.859375 700.054688 C 876.175781 673.972656 876.734375 647.859375 877.816406 621.773438 Z M 877.816406 621.773438 " fill-opacity="1" fill-rule="nonzero"/><path fill="#fff9f9" d="M 672.488281 769.71875 C 670.890625 764.238281 670.035156 758.402344 668.847656 752.816406 L 662.085938 721.238281 L 653.984375 683.625 C 648.339844 656.230469 642.894531 628.777344 635.988281 601.660156 C 645.078125 601.976562 654.179688 602.800781 663.269531 603.253906 C 666.375 610.261719 668.53125 618.042969 670.886719 625.339844 C 676.5 642.273438 681.464844 659.410156 685.769531 676.722656 C 694.101562 708.910156 702.671875 740.890625 707.617188 773.828125 C 695.984375 773.148438 683.921875 771.980469 672.488281 769.71875 Z M 672.488281 769.71875 " fill-opacity="1" fill-rule="nonzero"/><path fill="#fff9f9" d="M 746.542969 635.3125 C 750.097656 627.523438 757.390625 618.765625 763.308594 612.570312 C 772.105469 613.261719 786.222656 615.421875 794.332031 618.683594 C 791.359375 626.746094 787.660156 634.035156 781.804688 640.402344 L 777.65625 640.097656 C 767.128906 639.148438 756.878906 637.53125 746.542969 635.3125 Z M 746.542969 635.3125 " fill-opacity="1" fill-rule="nonzero"/><path fill="#fff9f9" d="M 823 761.398438 C 823.167969 753.40625 823.992188 745.394531 824.652344 737.425781 C 825.699219 724.707031 826.839844 711.992188 828.070312 699.289062 C 830.796875 670.773438 833.292969 642.207031 836.339844 613.726562 C 847.011719 617.386719 858.363281 620.0625 869.457031 622.113281 C 868.121094 644.792969 867.710938 667.5625 866.695312 690.265625 C 865.722656 709.15625 864.4375 728.027344 862.835938 746.875 C 857.992188 748.535156 853.292969 750.644531 848.578125 752.644531 C 840.152344 755.941406 831.625 758.671875 823 761.398438 Z M 823 761.398438 " fill-opacity="1" fill-rule="nonzero"/><path fill="#fff9f9" d="M 786.714844 649.148438 C 791.804688 641.84375 796.28125 634.902344 800.089844 626.84375 C 804.257812 632.375 808.828125 643.664062 811.488281 650.25 C 808.320312 675.054688 803.710938 699.738281 799.925781 724.460938 C 797.664062 739.246094 796.089844 754.199219 794.25 769.042969 L 790.027344 769.84375 C 786.808594 770.496094 783.597656 771.171875 780.34375 771.625 C 782.636719 741.132812 784.394531 710.601562 785.613281 680.046875 C 786.078125 669.75 786.113281 659.4375 786.714844 649.148438 Z M 786.714844 649.148438 " fill-opacity="1" fill-rule="nonzero"/><path fill="#fff9f9" d="M 735.878906 774.660156 C 736.675781 757.363281 738.40625 740.011719 739.835938 722.753906 C 740.800781 711.132812 741.410156 699.484375 742.3125 687.855469 C 743.457031 673.1875 744.851562 658.425781 745.007812 643.703125 C 749.414062 644.027344 753.996094 645.214844 758.359375 645.96875 C 764.894531 647.074219 771.453125 648.03125 778.03125 648.835938 C 778.097656 653.851562 777.699219 658.914062 777.464844 663.921875 L 776.441406 688.035156 C 775.347656 716.28125 774.355469 744.765625 771.207031 772.875 L 767.542969 773.292969 C 757.007812 774.128906 746.445312 774.585938 735.878906 774.660156 Z M 735.878906 774.660156 " fill-opacity="1" fill-rule="nonzero"/><path fill="#fff9f9" d="M 525.246094 697.675781 C 526.074219 692.941406 527.082031 688.226562 528.011719 683.507812 C 528.726562 684.546875 534.914062 701.625 534.808594 702.8125 L 533.976562 702.410156 C 531.191406 700.59375 528.246094 699.085938 525.246094 697.675781 Z M 525.246094 697.675781 " fill-opacity="1" fill-rule="nonzero"/><path fill="#fff9f9" d="M 923.578125 726.816406 C 929.800781 723.457031 936.207031 720.476562 942.519531 717.296875 C 950.355469 713.351562 958.074219 709.21875 965.949219 705.335938 C 969.929688 703.375 973.722656 700.769531 977.742188 698.980469 C 978.714844 698.546875 979.746094 698.417969 980.796875 698.292969 C 982.871094 698.40625 984.796875 698.707031 986.71875 699.539062 C 990.9375 701.367188 993.070312 704.847656 994.753906 708.902344 C 987.742188 711.96875 980.980469 715.476562 974.070312 718.753906 C 961.65625 724.644531 949.085938 730.550781 937.007812 737.097656 C 936.378906 737.523438 935.753906 738.027344 934.992188 738.171875 C 934.476562 738.265625 934.460938 737.957031 934.160156 737.578125 C 930.933594 733.527344 927.613281 730.0625 923.578125 726.816406 Z M 923.578125 726.816406 " fill-opacity="1" fill-rule="nonzero"/><path fill="#fff9f9" d="M 883.699219 972.1875 C 882.53125 976.714844 881.757812 981.433594 880.789062 986.015625 C 878.925781 994.527344 877.152344 1003.0625 875.46875 1011.613281 C 873.746094 1020.34375 872.441406 1030.230469 868.726562 1038.316406 C 865.945312 1044.371094 861.046875 1049.90625 854.59375 1052.105469 C 848.738281 1054.101562 838.226562 1054.058594 831.761719 1054.550781 C 767.3125 1059.507812 702.53125 1058.011719 638.375 1050.085938 C 631.097656 1049.191406 611.449219 1047.011719 605.542969 1044.066406 C 600.136719 1041.367188 596.550781 1035.4375 594.707031 1029.835938 C 592.246094 1022.363281 590.226562 1014.769531 588.003906 1007.230469 L 571.472656 949.902344 L 535.054688 825.503906 L 513.710938 753.230469 L 507.382812 732.371094 C 506.148438 728.363281 504.65625 724.300781 503.761719 720.207031 C 503.050781 716.96875 503.175781 713.632812 504.769531 710.664062 C 506.839844 706.8125 510.316406 705.609375 514.269531 704.515625 C 517.574219 704.257812 520.148438 704.691406 523.101562 706.292969 C 530.464844 710.277344 537.050781 716.613281 543.863281 721.5 C 560.851562 733.679688 578.105469 745.007812 596.933594 754.191406 C 637.097656 773.78125 680.351562 782.628906 724.839844 783.59375 C 746.363281 784.0625 767.449219 782.828125 788.660156 779.003906 C 809.707031 775.210938 830.527344 768.894531 850.515625 761.328125 C 864.089844 756.1875 877.351562 749.621094 890.242188 742.949219 C 896.953125 739.476562 905.179688 734.34375 912.238281 731.980469 C 912.375 731.933594 912.511719 731.890625 912.652344 731.847656 C 918.011719 732.855469 922.660156 736.304688 925.761719 740.765625 C 927.175781 742.800781 928.433594 745.554688 928.238281 748.09375 C 927.875 752.835938 925.882812 759.410156 924.886719 764.246094 L 916.890625 803.542969 Z M 883.699219 972.1875 " fill-opacity="1" fill-rule="nonzero"/><path fill="#fff9f9" d="M 936.621094 746.878906 C 942.09375 744.449219 947.460938 741.4375 952.855469 738.804688 C 966.839844 731.816406 980.960938 725.105469 995.210938 718.671875 L 995.738281 718.785156 C 995.9375 722.417969 987.890625 748.597656 986.472656 753.847656 L 958.671875 857.316406 L 930.097656 965.308594 L 921.457031 997.480469 C 919.964844 1002.847656 918.59375 1008.359375 916.675781 1013.585938 C 914.003906 1015.871094 910.949219 1017.734375 908.027344 1019.679688 C 898.597656 1025.957031 888.480469 1031.367188 879.347656 1038.035156 L 879.179688 1038.050781 L 878.855469 1037.734375 C 880.320312 1028.808594 882.558594 1019.878906 884.46875 1011.035156 L 893.683594 966.914062 L 920.472656 830.890625 C 923.109375 818.074219 925.292969 805.152344 928.058594 792.367188 L 933.351562 766.664062 C 934.683594 760.082031 936.371094 753.621094 936.621094 746.878906 Z M 936.621094 746.878906 " fill-opacity="1" fill-rule="nonzero"/></svg>